<?xml version="1.0" encoding="utf-8"?>

<!DOCTYPE svg PUBLIC "-//W3C//DTD SVG 1.1//EN" "http://www.w3.org/Graphics/SVG/1.1/DTD/svg11.dtd">
<svg version="1.1" id="Layer_1" xmlns="http://www.w3.org/2000/svg" xmlns:xlink="http://www.w3.org/1999/xlink" x="0px" y="0px"
	 viewBox="955.3932 3.7579 1609.1329 1600.7451" enable-background="new 955.3932 3.7579 1609.1329 1600.7451" xml:space="preserve"
	>
<g>
	<path d="M1598.7919,1447.207c0.0394-0.1803,12.5472,30.8522,14.3281,54.1958c2.9059,24.5339-11.3477,33.1063-14.1742,33.2802
		c-4.3237,2.8303-6.8831,7.6013-3.8633,13.3494c2.5804,5.0316,11.1274,8.9231,17.179,5.4664
		c3.9243-0.0476,17.5845-17.0356,9.5752-45.9758C1615.2563,1479.1913,1598.7445,1447.0203,1598.7919,1447.207z"/>
	<path d="M1616.1621,1478.6541c3.6125,2.2878,22.8688,58.7285,17.4932,57.7772c-0.0862,3.2977,3.7458,9.4316,8.4562,13.5105
		c4.7003,4.0623,8.9288,3.5275,9.109-1.3036C1656.0322,1543.9489,1618.369,1478.0363,1616.1621,1478.6541z"/>
	<path d="M1635.5785,1504.1024c3.1805,0.9954,30.3265,48.3527,25.0555,47.3982c0.4104,2.5315,4.9177,7.4703,9.8198,10.8071
		c4.8933,3.3258,8.512,2.2612,7.616-2.5173C1680.578,1552.5326,1636.0913,1501.4702,1635.5785,1504.1024z"/>
	<path d="M1757.3896,997.1273c-2.137-28.8373-41.4463-62.9368-48.1045-68.5187c3.0446,3.0745,9.9624,15.46-29.1102,46.3676
		c-10.8499,8.5918-18.5902,16.8708-23.8619,24.8402l-7.2255,15.0037l7.2255-15.0037c2.9438-9.0905,4.5906-20.3041,4.5432-34.1436
		c-0.197-49.8189,13.7998-52.1324,18.1018-51.669c-8.5154-1.7255-59.6846-11.1979-83.5627,5.1108
		c-42.9259,29.4389-44.3503,80.1732-106.9208,115.9659c8.8463-5.0204,52.0714,0.8273,90.4955,2.3339
		c25.0994,0.9756,54.1398,0.6809,70.0103-22.3713c-8.1279,26.7811,9.7483,49.6693,26.1602,68.6845
		c25.1349,29.1018,56.657,59.2506,58.2476,69.2971C1722.3599,1081.7889,1761.1373,1049.0428,1757.3896,997.1273z"/>
	<path d="M1709.2852,928.6087c-0.552-0.5575-0.9773-0.8101-0.9773-0.8101S1708.6681,928.0912,1709.2852,928.6087z"/>
	<path d="M1494.7246,1335.3584c-28.0571,11.9065-52.6267,21.7906-57.7474,24.0587c-14.8641,6.2773-24.5742,12.9247-21.3571,14.6458
		c3.1614,1.6683,15.4797-1.283,28.7618-7.0226c4.1653-1.8694,22.5675-10.3546,45.399-21.417
		c5.5864,24.7478,10.4261,44.4258,11.5618,48.8478c3.7939,13.963,9.1669,25.4341,12.4421,26.8654
		c3.3516,1.4423,2.4944-10.2938-1.8651-25.8289C1510.5001,1390.09,1502.9092,1364.7179,1494.7246,1335.3584z"/>
	<path d="M1487.8152,1349.7062c-16.7655,9.3887-29.3376,16.6462-32.1072,18.5159c-11.261,7.0758-15.03,13.0574-9.0759,12.9218
		c5.8484-0.1384,16.5778-4.6727,25.8857-10.7485c1.1199-0.7638,3.8877-2.6566,7.9268-5.3843
		c0.3857,4.8585,0.6318,8.2026,0.7329,9.5544c1.0531,11.0654,4.1978,22.2813,7.7358,26.9402
		c3.6063,4.7395,5.9329-1.9369,4.4441-15.1526C1493.0923,1383.0221,1490.9277,1368.6677,1487.8152,1349.7062z"/>
	<path d="M1531.3936,1405.3613c-1.4673-2.2765-8.0496-13.0868-15.7446-32.4674c-4.9395-12.5242-10.6514-29.8993-16.2278-47.2875
		v-0.0004c0,0,0,0.0001-0.0001,0.0001c0-0.0001-0.0001-0.0001-0.0001-0.0001l-0.0001,0.0001
		c-17.0714,6.4814-34.2172,12.849-47.0887,16.7959c-19.9503,6.0674-32.5061,7.6611-35.2009,7.9331
		c-11.6299,1.7306-13.8232,1.8724-21.424,1.5183c-3.2395,0.1848-9.9398,3.0009-10.3248,6.8784
		c-0.5718,4.1782,9.8896,5.687,20.167,4.3671c5.3447-0.4677,23.4949-3.7694,45.3401-11.3396
		c14.5284-5.0576,29.3447-11.1237,44.3752-17.5227c4.3684,15.741,8.8638,31.1069,13.9677,45.6193
		c7.7017,21.7991,16.4369,38.0482,19.4034,42.5183c5.3757,8.8583,13.0781,16.0966,15.9883,13.0444
		c2.7914-2.7188,0.8159-9.7129-1.0597-12.3608C1538.5487,1417.3362,1537.292,1415.5328,1531.3936,1405.3613z"/>
	<path d="M1250.8926,1379.4725c1.0703,6.8865,9.442,11.1425,14.9849,10.0229c6.3767-1.223,8.5109-6.1986,8.0282-11.3436
		c-1.6263-2.3182-3.8113-18.8069,17.182-31.8317c19.361-13.1622,51.4219-22.7318,51.3054-22.5885
		c0.1755-0.0793-35.2717,7.0695-61.5251,19.5894C1253.2478,1355.1029,1248.483,1376.3746,1250.8926,1379.4725z"/>
	<path d="M1306.9767,1329.7581c-0.8932-2.1106-75.9083,9.5391-76.5746,16.2246c-3.6647,3.1532-1.4464,6.7927,4.6604,7.9347
		c6.1257,1.1395,13.3108,0.311,15.8353-1.8125C1246.8022,1348.4952,1302.9355,1328.3601,1306.9767,1329.7581z"/>
	<path d="M1274.9741,1330.4445c1.7382-2.0419-65.9209-4.9862-70.0315,1.5c-4.2947,2.2788-2.8708,5.7717,2.7803,7.5238
		c5.6653,1.7521,12.3368,2.1969,14.572,0.9393C1218.2625,1336.8817,1272.213,1328.5784,1274.9741,1330.4445z"/>
	<path d="M1678.958,914.0039c0.7892,0.1599,1.2426,0.2587,1.2426,0.2587S1679.7378,914.088,1678.958,914.0039z"/>
	<path d="M1539.0554,960.7573c-38.6995-1.5212-81.4833,41.4932-81.4833,41.4932c4.2692-0.5607,10.5118,3.0563,18.4167,8.8008
		c3.8413,8.9851,5.9786,15.876,4.4822,19.9132C1480.4709,1030.9645,1531.9271,998.8253,1539.0554,960.7573z"/>
	<path d="M1477.2878,1371.566c-3.5643,3.8381-5.2913,7.0576-4.5337,9.4146c2.3149-0.8773,3.7551-4.2347,4.5338-9.4146l0.0001-0.0002
		c-0.0001,0-0.0001,0-0.0001,0.0001L1477.2878,1371.566z"/>
	<path d="M2239.0515,1343.321c-26.2537-12.5199-61.7009-19.6687-61.5251-19.5894c-0.1165-0.1433,31.9443,9.4263,51.3054,22.5885
		c20.9932,13.0248,18.8083,29.5134,17.1819,31.8317c-0.4827,5.145,1.6514,10.1206,8.0283,11.3436
		c5.5427,1.1195,13.9143-3.1365,14.9849-10.0229C2271.4365,1376.3746,2266.6716,1355.1029,2239.0515,1343.321z"/>
	<path d="M2289.5171,1345.9827c-0.6663-6.6855-75.6814-18.3352-76.5745-16.2246c4.041-1.3979,60.1743,18.7372,56.0789,22.3468
		c2.5244,2.1235,9.7095,2.952,15.8354,1.8125C2290.9634,1352.7754,2293.1816,1349.1359,2289.5171,1345.9827z"/>
	<path d="M2314.9763,1331.9445c-4.1104-6.4862-71.7693-3.5419-70.031-1.5c2.761-1.8661,56.7117,6.4373,52.6792,9.9631
		c2.2349,1.2576,8.9065,0.8127,14.5718-0.9393C2317.8474,1337.7162,2319.2712,1334.2233,2314.9763,1331.9445z"/>
	<path d="M1940.9492,1037.4144c38.424-1.5066,81.649-7.3542,90.4955-2.3339c-62.5703-35.7927-63.995-86.527-106.9207-115.9658
		c-23.8783-16.3089-75.0474-6.8364-83.5627-5.1108c4.3019-0.4635,18.2986,1.8501,18.1017,51.669
		c-0.0474,13.8396,1.5994,25.0532,4.5433,34.1436l7.2255,15.0038l-7.2255-15.0037c-5.2719-7.9694-13.0123-16.2485-23.8619-24.8402
		c-39.0729-30.9075-32.1548-43.2931-29.1104-46.3676c-6.6583,5.5818-45.9675,39.6813-48.1047,68.5187
		c-3.7476,51.9155,35.03,84.6616,24.0018,155.8973c1.5905-10.0465,33.1129-40.1953,58.2477-69.2971
		c16.4119-19.0153,34.2878-41.9036,26.1603-68.6846C1886.8096,1038.0953,1915.85,1038.39,1940.9492,1037.4144z"/>
	<path d="M1840.9613,914.0039c-0.78,0.084-1.2428,0.2587-1.2428,0.2587S1840.1721,914.1637,1840.9613,914.0039z"/>
	<path d="M2082.9421,1359.4171c-5.1208-2.2681-29.6904-12.1522-57.7476-24.0588c-8.1846,29.3595-15.7756,54.7317-17.1951,60.1493
		c-4.3596,15.535-5.2167,27.2711-1.8654,25.8289c3.2755-1.4313,8.6483-12.9023,12.4421-26.8654
		c1.1355-4.422,5.9752-24.1001,11.5616-48.8478c22.8318,11.0624,41.2341,19.5476,45.3992,21.417
		c13.2822,5.7396,25.6006,8.6909,28.762,7.0226C2107.5161,1372.3418,2097.8062,1365.6945,2082.9421,1359.4171z"/>
	<path d="M2064.2114,1368.222c-2.7695-1.8696-15.3418-9.1272-32.1073-18.5159c-3.1127,18.9615-5.2771,33.3159-5.5421,36.6469
		c-1.489,13.2157,0.8376,19.8921,4.4438,15.1526c3.5381-4.6589,6.6829-15.8748,7.7361-26.9402
		c0.1008-1.3518,0.3469-4.6959,0.7327-9.5544c4.0391,2.7277,6.8069,4.6205,7.9268,5.3843
		c9.3079,6.0758,20.0376,10.6101,25.8857,10.7485C2079.2412,1381.2794,2075.4722,1375.2979,2064.2114,1368.222z"/>
	<path d="M2124.2119,1351.8535c-7.6006,0.3541-9.7942,0.2123-21.4238-1.5183c-2.6948-0.272-15.2505-1.8657-35.2009-7.9331
		c-12.8716-3.9469-30.0173-10.3146-47.0889-16.796h-0.0002c-5.5764,17.3883-11.2882,34.7635-16.2278,47.2878
		c-7.6953,19.3806-14.2776,30.1909-15.7449,32.4674c-5.8982,10.1715-7.1548,11.9749-12.1707,17.6965
		c-1.8755,2.6479-3.8513,9.6421-1.0598,12.3608c2.9104,3.0521,10.6125-4.1862,15.9883-13.0444
		c2.9668-4.4701,11.7019-20.7192,19.4036-42.5183c5.1041-14.5123,9.5994-29.8782,13.9677-45.6193
		c15.0306,6.3992,29.8468,12.4651,44.3754,17.5227c21.845,7.5702,39.9954,10.8719,45.3401,11.3396
		c10.2771,1.3199,20.7388-0.1888,20.167-4.3671C2134.1519,1354.8544,2127.4517,1352.0383,2124.2119,1351.8535z"/>
	<path d="M1920.9735,1534.683c-2.8265-0.1738-17.0802-8.7462-14.1742-33.2802c1.7809-23.3436,14.2887-54.3761,14.3281-54.1958
		c0.0474-0.1868-16.4645,31.9843-23.0448,60.3159c-8.0094,28.9402,5.6508,45.9282,9.5751,45.9758
		c6.0515,3.4567,14.5986-0.4348,17.1792-5.4664C1927.8564,1542.2843,1925.2971,1537.5133,1920.9735,1534.683z"/>
	<path d="M1903.7572,1478.6541c-2.2069-0.6178-39.8702,65.2948-35.0585,69.9841c0.1803,4.8311,4.4089,5.3658,9.1091,1.3036
		c4.7102-4.0789,8.5422-10.2128,8.4562-13.5105C1880.8884,1537.3826,1900.1447,1480.9419,1903.7572,1478.6541z"/>
	<path d="M1884.3406,1504.1024c-0.5126-2.6322-44.9993,48.4302-42.4912,55.688c-0.896,4.7786,2.7227,5.8431,7.616,2.5173
		c4.9021-3.3368,9.4094-8.2756,9.8198-10.8071C1854.0143,1552.4551,1881.1602,1505.0978,1884.3406,1504.1024z"/>
	<path d="M1811.6111,927.7986c0,0-0.425,0.2526-0.9771,0.8101C1811.251,928.0913,1811.6111,927.7986,1811.6111,927.7986z"/>
	<path d="M1759.9597,1147.8043c9.4199,2.5989,16.1398,5.2242,18.3634,8.9116c0,0,6.9547-60.2686-18.3634-89.5768
		c-25.3184,29.3082-18.3635,89.5768-18.3635,89.5768C1743.8196,1153.0286,1750.5398,1150.4032,1759.9597,1147.8043z"/>
	<polygon points="2042.6311,1371.5658 2042.6313,1371.5662 2042.6313,1371.5659 	"/>
	<path d="M2047.165,1380.9806c0.7576-2.3569-0.9694-5.5762-4.5337-9.4144C2043.4102,1376.746,2044.85,1380.1033,2047.165,1380.9806z
		"/>
	<path d="M2542.4541,757.4893c-0.9199-3.8154-20.5215-13.3528-46.9539,0.8956c-26.157,12.7197-53.8474,35.9763-53.6758,35.8886
		c-0.1846,0.0015,27.2866-19.0981,49.6487-26.0286c23.2722-8.2924,34.8013,3.6962,35.5996,6.4133
		c3.7217,3.5852,8.9424,5.0189,13.8745,0.7958C2545.2783,771.8187,2547.1709,762.6198,2542.4541,757.4893z"/>
	<path d="M2529.0461,720.5886c-5.6426-3.6476-61.5217,47.7383-60.4285,49.7525c1.4268-4.0311,52.1675-35.3638,52.436-29.9112
		c3.2344-0.6498,8.3618-5.7506,11.2903-11.2506C2535.2583,723.693,2533.7961,719.6894,2529.0461,720.5886z"/>
	<path d="M2533.9441,691.9311c-7.634-0.8304-47.5168,53.9034-44.8364,53.8176c0.2625-3.3223,40.3921-40.3254,40.6343-34.9745
		c2.3767-0.9633,6.189-6.4566,8.3513-11.9783C2540.2466,693.2851,2538.4036,689.9941,2533.9441,691.9311z"/>
	<path d="M2125.0679,728.5135c-66.9961,26.603-107.55-3.9155-157.33,11.2905c-27.6388,8.5003-52.1361,54.4119-56.0963,62.1453
		c2.3198-3.6522,12.8555-13.1528,51.6827,18.0627c10.7906,8.6657,20.5846,14.3699,29.5271,17.7361l16.4764,3.7607
		c27.9182,1.9648,46.2549-20.5562,61.1414-40.7879C2093.2483,769.7404,2115.6267,732.2996,2125.0679,728.5135z"/>
	<path d="M1911.6414,801.9493c-0.4207,0.6622-0.5723,1.1329-0.5723,1.1329S1911.2743,802.666,1911.6414,801.9493z"/>
	<path d="M2249.8433,708.795c10.7302-11.835,19.6948-26.2292,26.8018-42.1331c-13.3032-11.2454-27.626-20.3241-42.4285-26.3317
		c-59.6187-43.3536-122.3865-73.8774-153.0315-111.9071c-30.2568-38.339-46.0483-106.3252-75.0485-174.0962
		c-2.5629-15.7682-8.2271-31.752-16.2303-47.2239l-6.5593,13.6204c2.0669,7.9932,2.8989,15.8191,2.1836,23.1936
		c-2.5621,25.9717-13.8992,28.073-23.7426,21.5742l-13.9476,28.963c5.5808,4.4332,10.7767,6.3702,13.1018,5.4205
		c0,0-40.666,78.6758,27.6268,103.2854c0,0,31.0007,4.5088,33.8307-28.2643c0,0-0.04-0.1863-0.1042-0.4647
		c0.561-7.762-3.2854-14.446-9.0641-15.6532c-6.4386-1.3315-12.8451,4.3077-14.6874,12.761
		c-0.2375,1.0936-0.3743,2.182-0.437,3.2518c-0.2322,1.175-0.3392,2.4171-0.24,3.7534c0,0-28.3625,3.1138-25.7494-37.9138
		c25.1002-14.8645,36.2473-41.7053,35.5099-70.3809c24.9052,62.7637,40.2925,125.3651,68.1555,162.4817
		c29.9858,35.4237,87.594,64.3556,143.2419,102.6023c-27.7925-7.0999-56.4407-2.2048-76.5178,18.9584
		c-40.5803-6.5819-31.2334-33.5406-31.2334-33.5406c1.2805,0.3942,2.5154,0.5662,3.7126,0.6014
		c1.0571,0.1768,2.1487,0.2857,3.2676,0.2976c8.6514,0.0851,15.5747-4.906,15.7095-11.4796
		c0.1086-5.9026-5.5518-11.1398-13.2439-12.3202c-0.2573-0.1244-0.4299-0.2048-0.4299-0.2048
		c-32.5811-4.5336-35.0835,26.6932-35.0835,26.6932c8.7959,72.0568,94.5483,49.9174,94.5483,49.9174
		c-1.4436,2.0554-0.7114,7.552,2.3691,13.9795c0.0132,7.1276,1.7388,12.3974,3.9307,13.6229c0,0-86.866,17.2596-63.5266,85.9969
		c0,0,15.8037,27.0485,43.1909,8.8275c0,0,0.1208-0.1475,0.2983-0.3712c6.4185-4.4009,9.2458-11.5754,6.5869-16.8462
		c-2.9736-5.8642-11.3767-7.357-19.1345-3.5267c-1.0032,0.4961-1.9392,1.0679-2.8149,1.6859
		c-1.0632,0.5511-2.1013,1.2418-3.084,2.1526c0,0-20.1182-20.2333,13.5879-43.7706c27.271,10.3563,55.2061,2.3364,77.1658-16.1188
		c-33.5427,58.6041-72.8923,109.6656-84.5391,154.5919c-8.9993,45.5303,4.2986,108.6086,9.092,175.9626
		c-11.7773-26.1556-33.4666-45.5018-62.5303-48.0036c-20.1558-35.8309,6.749-45.3315,6.749-45.3315
		c0.4905,1.247,1.126,2.3196,1.845,3.2777c0.5208,0.9366,1.116,1.8578,1.8044,2.7402c5.3276,6.8168,13.5464,9.1177,18.7698,5.1245
		c4.6829-3.595,5.2483-11.2859,1.375-18.0357c-0.0632-0.2787-0.1079-0.4641-0.1079-0.4641
		c-16.7693-28.2994-42.7439-10.7864-42.7439-10.7864c-50.8521,51.8038,19.9231,105.0439,19.9231,105.0439
		c-2.5068,0.153-6.3479,4.1523-9.4524,10.5682c-5.5645,4.4545-8.6086,9.0891-8.2002,11.567c0,0-67.6541-57.1533-106.8434,3.951
		c0,0-11.2938,29.2202,20.0276,39.272c0,0,0.1904,0.0024,0.4763,0.0018c7.4425,2.2742,14.8148,0.0116,17.2777-5.3538
		c2.7307-5.9808-1.3414-13.4817-9.1729-17.1588c-1.0133-0.4749-2.0439-0.8502-3.073-1.1497c-1.094-0.4877-2.2813-0.8685-3.606-1.069
		c0,0,3.2754-28.3445,42.6929-16.6674c8.9065,27.7786,32.594,44.6188,60.7144,50.281
		c-66.7319,10.3143-131.1877,11.3857-173.574,30.2911c-41.2079,21.3518-82.2332,71.0773-131.9041,116.8195
		c13.1062-25.5157,14.709-54.5352-1.4563-78.8181c15.4469-38.0984,39.6497-22.9869,39.6497-22.9869
		c-0.6692,1.1609-1.1118,2.3264-1.4124,3.4858c-0.4075,0.9912-0.7567,2.031-1.0172,3.1195
		c-2.0081,8.4154,1.3175,16.2759,7.6962,17.8698c5.7302,1.4197,12.0958-2.9335,14.958-10.17
		c0.1787-0.2231,0.2954-0.3738,0.2954-0.3738c11.6702-30.7551-18.2169-40.1438-18.2169-40.1438
		c-72.2074-7.4585-69.7047,81.0703-69.7047,81.0703c-1.6827-1.8645-7.2043-2.3738-14.1563-0.801v0.0001
		c-6.9521-1.5728-12.4736-1.0635-14.1563,0.801c0,0,2.5027-88.5288-69.7051-81.0703c0,0-29.8867,9.3887-18.2169,40.1438
		c0,0,0.1169,0.1506,0.2955,0.3738c2.8623,7.2366,9.2279,11.5897,14.9581,10.17c6.3787-1.5939,9.7042-9.4543,7.6962-17.8698
		c-0.2605-1.0885-0.6096-2.1283-1.0171-3.1195c-0.3007-1.1594-0.7432-2.325-1.4126-3.4858c0,0,24.2029-15.1115,39.6498,22.9869
		c-16.1652,24.283-14.5625,53.3024-1.4565,78.8181c-49.6708-45.7422-90.6959-95.4677-131.9039-116.8195
		c-42.3862-18.9054-106.8422-19.9768-173.5742-30.2911c28.1206-5.6622,51.8081-22.5024,60.7144-50.281
		c39.4175-11.6771,42.6931,16.6674,42.6931,16.6674c-1.325,0.2004-2.512,0.5813-3.606,1.069
		c-1.0291,0.2994-2.0596,0.6748-3.073,1.1497c-7.8313,3.6771-11.9036,11.178-9.1727,17.1588
		c2.4628,5.3654,9.8351,7.6279,17.2775,5.3538c0.2861,0.0006,0.4766-0.0018,0.4766-0.0018
		c31.3212-10.0518,20.0273-39.272,20.0273-39.272c-39.1892-61.1043-106.8434-3.951-106.8434-3.951
		c0.4086-2.4779-2.6359-7.1125-8.2001-11.567l-25.1331,20.043c8.5261,8.1503,9,19.6708-15.7502,27.9479
		c-7.0303,2.3384-14.845,3.2687-23.0977,3.0322c1.606-8.0984,4.252-15.5101,8.0959-21.8438
		c13.577-22.2881,24.7031-19.2625,30.7517-9.1364l25.1333-20.043c-3.1047-6.4159-6.9458-10.4153-9.4525-10.5682
		c0,0,70.775-53.2402,19.923-105.0439c0,0-25.9746-17.5129-42.7438,10.7864c0,0-0.0448,0.1853-0.108,0.4641
		c-3.873,6.7499-3.3077,14.4407,1.375,18.0357c5.2234,3.9933,13.4421,1.6923,18.7698-5.1245
		c0.6884-0.8824,1.2837-1.8036,1.8044-2.7402c0.719-0.9581,1.3545-2.0307,1.845-3.2777c0,0,26.9048,9.5005,6.7493,45.3315
		c-29.064,2.5018-50.7529,21.848-62.5304,48.0037c4.7935-67.3539,18.0917-130.4324,9.0922-175.9626
		c-11.6467-44.9262-50.9966-95.9878-84.5391-154.5919c21.9597,18.4553,49.8948,26.4751,77.166,16.1188
		c33.7058,23.5372,13.5876,43.7706,13.5876,43.7706c-0.9828-0.9108-2.0208-1.6016-3.0842-2.1526
		c-0.8757-0.6179-1.8118-1.1899-2.8149-1.6859c-7.7576-3.8302-16.1609-2.3373-19.1343,3.5267
		c-2.6592,5.2708,0.1683,12.4453,6.5867,16.8462c0.1777,0.2238,0.2986,0.3712,0.2986,0.3712
		c27.3872,18.2211,43.1909-8.8275,43.1909-8.8275c23.3394-68.7374-63.5266-85.9969-63.5266-85.9969
		c2.1919-1.2255,3.9175-6.4954,3.9308-13.623h-0.0001c3.0806-6.4275,3.8125-11.9241,2.3691-13.9795
		c0,0,85.7522,22.1394,94.5482-49.9174c0,0-2.5026-31.2268-35.0836-26.6932c0,0-0.1729,0.0804-0.4301,0.2048
		c-7.6923,1.1802-13.3527,6.4175-13.2437,12.3202c0.1346,6.5735,7.058,11.5647,15.7092,11.4796
		c1.119-0.0118,2.2106-0.1208,3.2675-0.2976c1.1973-0.0352,2.4323-0.2072,3.7129-0.6014c0,0,9.347,26.9587-31.2335,33.5405
		c-20.077-21.1631-48.7253-26.0583-76.5178-18.9584c55.6481-38.2468,113.256-67.1786,143.2421-102.6024
		c27.8633-37.1165,43.2506-99.718,68.1558-162.4817c-0.7375,28.6755,10.4095,55.5164,35.5098,70.3809
		c2.6132,41.0276-25.7493,37.9138-25.7493,37.9138c0.0991-1.3363-0.0078-2.5784-0.2401-3.7534
		c-0.0626-1.0698-0.1992-2.1582-0.4368-3.2517c-1.8423-8.4534-8.2489-14.0925-14.6876-12.761
		c-5.7788,1.207-9.625,7.891-9.0642,15.6531c-0.0642,0.2786-0.1041,0.4648-0.1041,0.4648
		c2.83,32.7729,33.8307,28.2643,33.8307,28.2643c68.293-24.6097,27.627-103.2855,27.627-103.2855
		c2.325,0.9497,7.5208-0.9872,13.1018-5.4204l-13.9478-28.9631c-9.8433,6.4989-21.1802,4.3975-23.7426-21.5742
		c-0.7153-7.3745,0.1167-15.2003,2.1837-23.1935l-6.5596-13.6205c-8.0032,15.472-13.6675,31.4558-16.2302,47.224
		c-29.0002,67.7709-44.7917,135.7574-75.0486,174.0962h-0.0001c-30.6448,38.0297-93.4127,68.5535-153.0314,111.907
		c-14.8025,6.0076-29.125,15.0864-42.4285,26.3317v0.0001c7.1067,15.9039,16.0715,30.2982,26.8018,42.1331
		c34.9041,64.9278,78.2122,119.6628,89.3218,167.2228h0.0002c10.626,47.6702-4.6448,115.7751-7.9214,189.4173
		c-4.5322,15.3187-6.364,32.1772-5.8665,49.5895c16.865,4.3597,33.7084,6.3253,49.6516,5.3152
		c72.5249,13.1926,142.3206,13.4597,186.4309,34.4268c43.8951,21.4143,87.6208,75.8163,143.1539,124.2931
		c9.1508,13.0947,21.1893,25.038,35.1129,35.5052v-15.1177c-5.3303-6.3047-9.4753-12.9946-12.0303-19.949
		c-8.9602-24.5114,0.3424-31.3237,12.0308-29.7393v-0.0001c11.6882-1.5845,20.9906,5.2279,12.0304,29.7393
		c-2.5551,6.9543-6.7003,13.6443-12.0304,19.949v15.1177c13.9236-10.4673,25.9622-22.4105,35.1128-35.5052
		c55.5331-48.4768,99.2588-102.8788,143.1538-124.2931c44.1106-20.9672,113.906-21.2341,186.4312-34.4268
		c15.9431,1.0101,32.7866-0.9554,49.6516-5.3152c0.4976-17.4122-1.334-34.2708-5.8665-49.5895
		c-3.2766-73.6422-18.5471-141.7471-7.9214-189.4174C2171.6309,828.4579,2214.939,773.7229,2249.8433,708.795z M2213.4639,681.0827
		c-4.1455-11.0425,0.426-21.6277,26.3164-18.3463c7.3486,0.9435,14.793,3.4961,22.126,7.2897
		c-4.9607,6.5995-10.5603,12.1293-16.772,16.1678C2223.2314,700.3838,2214.52,692.8303,2213.4639,681.0827z M1258.0129,670.0259
		c7.3329-3.7936,14.7773-6.3462,22.1259-7.2897c25.8907-3.2814,30.462,7.3038,26.3165,18.3463h0.0002
		c-1.0562,11.7477-9.7678,19.3011-31.6707,5.1111C1268.5735,682.1553,1262.9736,676.6256,1258.0129,670.0259z M2139.3918,1102.5669
		c-24.7502-8.2771-24.2764-19.7976-15.75-27.9479c6.0486-10.1261,17.1748-13.1517,30.7517,9.1364
		c3.8442,6.3336,6.4902,13.7454,8.0962,21.8438C2154.2368,1105.8356,2146.4224,1104.9053,2139.3918,1102.5669z"/>
	<path d="M2435.5186,882.9057c0.6602-3.5884-10.5908-0.1414-24.7664,7.566c-4.9661,2.5895-28.0129,15.636-54.8152,30.1486
		c17.8513,24.7043,32.9551,46.4585,36.3057,50.9462c9.4277,13.0945,18.0691,21.0818,19.031,17.5623
		c0.9231-3.4533-4.6956-14.8061-13.2468-26.478c-2.749-3.6448-15.1167-19.6978-30.9819-39.4953
		c22.884-10.9532,40.9917-20.0502,45.0503-22.1414C2424.8638,894.2082,2434.8518,886.4175,2435.5186,882.9057z"/>
	<path d="M2421.719,911.5667c3.8184-4.5705-3.2083-5.3533-15.7615-0.9608c-3.1882,0.9996-16.7012,6.304-34.4946,13.5579v0.0001
		c0,0,0,0.0001-0.0002,0.0001l0.0005,0.0001c12.8838,14.256,22.7568,24.8978,25.1958,27.1818
		c9.4041,9.404,16.0745,11.7477,14.6174,5.973c-1.4365-5.6708-8.2446-15.1225-16.2393-22.8451
		c-0.9939-0.9216-3.4553-3.1993-7.0132-6.5299c4.6509-1.4571,7.8567-2.4412,9.1519-2.8403
		C2407.7295,921.6141,2417.9644,916.0526,2421.719,911.5667z"/>
	<path d="M2442.385,849.7061c-3.2717-2.1166-9.6506,1.3661-11.8149,3.7835c-4.4622,6.1632-5.9407,7.7897-14.5447,15.8034
		c-1.8928,1.9371-10.9673,10.7598-28.1499,22.5748c-11.1111,7.6025-26.7798,17.0375-42.4912,26.3436l9.3391,2.1315
		c14.3745-7.7615,28.3547-15.5633,41.3674-23.7686c19.5388-12.3593,33.4368-24.4911,37.1348-28.3783
		C2440.6653,860.9839,2446.0083,851.8642,2442.385,849.7061z"/>
	<path d="M2395.1172,929.5627c-0.0002,0-0.0002,0-0.0005,0l0.0007,0.0001c4.5349,2.6207,8.0579,3.5881,10.187,2.3251l-4.572-1.0436
		l4.572,1.0435C2403.9341,929.826,2400.3403,929.169,2395.1172,929.5627z"/>
	<path d="M2446.7947,1126.3805c-1.8982,2.1014-17.4873,7.9005-34.8569-9.6681c-17.1406-15.9467-33.6042-45.0742-33.4385-44.9927
		c-0.1167-0.1534,14.7407,32.8143,32.7886,55.6235c17.6326,24.3059,39.4314,24.2179,41.9153,21.1793
		c6.4756-2.5759,8.7622-11.6847,6.437-16.8394C2457.0291,1125.7385,2451.7034,1124.7649,2446.7947,1126.3805z"/>
	<path d="M2426.5205,1154.6074c-2.6079,4.7959-34.729-45.4495-34.2654-49.7003c-1.8589,1.3403,26.1912,71.8824,32.8574,71.0443
		c3.8894,2.8712,6.9441-0.1013,6.6987-6.3091C2431.5591,1163.4166,2429.1526,1156.5962,2426.5205,1154.6074z"/>
	<path d="M2400.0457,1135.9545c-2.3777-1.2404,9.8076,65.3777,17.0459,67.9418c3.1772,3.6799,6.2656,1.5145,6.7166-4.3848
		c0.4475-5.913-0.6035-12.5164-2.3271-14.4155C2418.9409,1189.8119,2398.8408,1139.0615,2400.0457,1135.9545z"/>
	<path d="M2046.717,904.7857c-4.634-24.6871-11.3833-52.9338-37.3892-63.2767l-16.4764-3.7605
		c-9.5177-0.8473-20.8165,0.0426-34.2985,3.1683c-48.5261,11.278-53.8962-1.8532-54.4019-6.1505
		c0.2126,8.6859,2.364,60.6798,23.5771,80.3303c38.2527,35.2988,88.0322,25.3983,136.8506,78.4352
		C2057.7158,986.0244,2053.7983,942.5817,2046.717,904.7857z"/>
	<path d="M1904.1272,833.4971c0,0-0.0676,0.4899,0.0239,1.2689C1904.1313,833.9611,1904.1272,833.4971,1904.1272,833.4971z"/>
	<path d="M2062.3472,1002.2505c0,0-42.7839-43.0143-81.4834-41.4932c7.1284,38.068,58.5845,70.2072,58.5845,70.2072
		c-1.4966-4.0372,0.6407-10.9282,4.4822-19.9132C2051.8354,1005.3068,2058.0779,1001.6898,2062.3472,1002.2505z"/>
	<path d="M2252.8579,949.6382c-1.0229-18.317-3.0908-36.3008-5.6348-53.8313c9.8979-14.6907,19.564-29.9964,28.4333-46.0554
		c38.8901,18.0224,111.9048-6.8251,165.0217-57.5353c73.7646-65.8362,94.5544-144.4189,96.79-158.8013
		c1.9204-10.0588,2.8855-19.0289,3.1113-26.9937c0-0.0001,0-0.0002,0-0.0002c-3.6592-7.0779-8.4207-14.7408-14.5154-22.9705
		c-8.2546-11.9882-61.0813-73.7682-156.1062-101.0793c-69.8591-22.642-146.4238-13.3491-173.6431,19.7627
		c-14.9585-10.6207-30.3086-20.2167-45.6006-29.1578l-53.054,42.3092c9.5403,4.6208,18.9878,9.4733,28.2463,14.6604
		c23.1313,11.6187,45.9399,24.8944,67.6826,40.158c18.0281,34.2695,54.6191,67.2355,84.627,96.2004
		c-14.4688,39.1165-33.1328,84.694-34.5066,123.3916c-12.9668,23.1859-27.7563,45.0432-43.5559,65.5478
		c-6.0911,8.6906-12.4973,17.1611-19.0881,25.4639l-0.0002-0.0001c0,0.0001,0,0.0001,0,0.0002v0.0001
		c2.3359,10.3402,4.4324,20.7517,6.1497,31.2242c5.3384,25.329,9.1799,51.4388,10.8025,77.9547
		c-15.5525,35.4615-18.5122,84.6235-22.4482,126.144c-39.6038,13.0765-86.8745,26.9016-117.9861,49.9553
		c-26.2122,4.3182-52.522,6.3831-78.4039,6.8147c-10.5923,0.6564-21.209,0.929-31.8097,0.9528v-0.0001
		c0,0.0001,0,0.0001-0.0002,0.0001v0.0002c-6.6281,8.2731-13.4607,16.4037-20.578,24.2758
		c-16.4745,19.9659-34.493,39.2488-54.212,57.0498c-37.4219,9.9503-77.7035,38.2882-112.6196,61.0986
		c-34.9163-22.8104-75.1979-51.1483-112.6196-61.0986c-19.7192-17.801-37.7375-37.0839-54.2122-57.0498
		c-7.1172-7.8721-13.95-16.0028-20.578-24.2759v-0.0001c0,0,0,0-0.0001-0.0001l-0.0001,0.0001
		c-10.6007-0.0238-21.2174-0.2964-31.8097-0.9528c-25.8818-0.4316-52.1919-2.4965-78.4041-6.8147
		c-31.1116-23.0537-78.3822-36.8788-117.986-49.9553l-6.6519,5.3047c21.7155,9.4215,44.6444,19.3562,64.7319,30.4889
		c-23.3051-7.3109-46.0131-16.7468-67.5824-28.2157l-39.7181,31.6742c36.5172,23.4099,76.1251,41.8005,116.3436,54.4563
		c-14.587,6.9386-33.5795,10.5011-53.4832,8.7827c-5.3744-0.4705-10.8391-1.348-16.3281-2.5983
		c2.5232-3.2108-1.0999-7.0725-8.217-8.687c-7.4009-1.8954-16.5715-1.2773-20.6628,1.4717
		c-4.1224,2.7811-0.9573,7.058,7.3772,9.4465c7.4114,1.9246,15.3563,1.5448,19.4744-0.6434
		c5.8726,1.3679,11.7472,2.3459,17.563,2.8705c21.6937,1.9231,42.1431-2.0112,57.6428-9.5815
		c3.1442,0.9683,6.3345,1.8749,9.4784,2.7799c-4.4391,7.7533-12.3519,15.1458-24.0182,21.1393
		c-23.0009,11.3015-57.5713,13.7799-88.7188,7.9677c-2.9559-0.5526-5.8369-1.2258-8.7324-1.9147
		c1.765-2.9093-2.0481-6.5436-8.8706-8.4138c-6.1555-1.9312-14.829-1.9451-21.4536-0.3983
		c-6.4786,1.4619-3.2759,6.626,7.0017,10.0607c8.6458,2.626,17.7196,2.5754,21.6843,0.2981
		c3.0078,0.7225,6.0044,1.4307,9.0896,2.0151c32.4677,6.1407,68.825,3.5848,93.1836-8.5115
		c11.73-6.0807,19.7708-13.4811,24.4325-21.212c2.6664,0.7507,5.3273,1.4897,8.0013,2.1957
		c-13.8784,24.9316-51.8325,45.6692-104.0437,48.8075c-48.0104,5.8157-107.037-13.4421-129.1415-36.6466l-6.7062,5.3483
		c25.1083,23.9664,86.4283,46.1998,141.2026,41.1364c58.9895-5.9941,97.2174-30.0737,109.3467-55.9536
		c1.2185,0.3025,2.4325,0.6112,3.6492,0.9c-6.9276,38.3367-68.1855,71.6516-133.0652,75.5355
		c-64.9517,5.712-105.0278-15.3016-113.2572-19.0188c-14.1777-6.3181-25.7809-13.4623-35.8406-20.2987l-34.1102,27.202
		c6.3677,4.7896,13.9827,9.6277,23.0444,14.3979c12.6387,7.2195,87.0391,39.9608,184.5035,23.3374
		c72.7646-9.911,137.7152-51.5039,147.8722-93.1464c18.0852,3.0785,36.0785,5.0641,53.7355,6.4849
		c12.1198,12.9189,24.8907,25.7487,38.5739,37.9689c-26.2249,33.9049-18.2473,110.6179,19.3718,173.6871
		c47.7716,86.5654,119.7578,124.3202,133.2822,129.7001c9.3792,4.1107,17.9098,7.0476,25.6246,9.0399
		c7.715-1.9923,16.2455-4.9292,25.6248-9.0399c13.5245-5.3799,85.5106-43.1346,133.2821-129.7001
		c37.6195-63.0692,45.5967-139.7822,19.3722-173.6871c13.683-12.2202,26.454-25.0499,38.5736-37.9689
		c17.657-1.4208,35.6501-3.4064,53.7356-6.4849c10.1571,41.6425,75.1077,83.2354,147.8723,93.1464
		c97.4644,16.6234,171.865-16.1179,184.5037-23.3374c9.0618-4.7703,16.6765-9.6084,23.0442-14.3979l-34.1101-27.202
		c-10.0596,6.8364-21.6628,13.9806-35.8406,20.2987c-8.2292,3.7172-48.3054,24.7308-113.2573,19.0188
		c-64.8796-3.8839-126.1375-37.1989-133.0649-75.5355c1.2168-0.2888,2.4307-0.5975,3.6492-0.9
		c12.1292,25.8799,50.3572,49.9595,109.3467,55.9536c54.7742,5.0635,116.0942-17.1699,141.2026-41.1364l-6.7063-5.3483
		c-22.1045,23.2045-81.1313,42.4623-129.1414,36.6466c-52.2112-3.1383-90.1653-23.8759-104.0437-48.8075
		c2.6738-0.7059,5.335-1.4449,8.0012-2.1957c4.6619,7.731,12.7026,15.1313,24.4326,21.212
		c24.3586,12.0963,60.7161,14.6522,93.1836,8.5115c3.0852-0.5845,6.0818-1.2926,9.0896-2.0151
		c3.9648,2.2773,13.0388,2.3279,21.6843-0.2981c10.2776-3.4347,13.4805-8.5988,7.0017-10.0607
		c-6.6248-1.5468-15.2983-1.5328-21.4536,0.3983c-6.8228,1.8702-10.6357,5.5045-8.8706,8.4138
		c-2.8955,0.6888-5.7764,1.3621-8.7324,1.9147c-31.1475,5.8123-65.7178,3.3339-88.7188-7.9677
		c-11.6665-5.9935-19.5793-13.386-24.0183-21.1393c3.144-0.905,6.3342-1.8116,9.4785-2.7799
		c15.4998,7.5703,35.9487,11.5046,57.6428,9.5815c5.8157-0.5245,11.6904-1.5026,17.5627-2.8705
		c4.1179,2.1882,12.063,2.568,19.4744,0.6434c8.3347-2.3885,11.4998-6.6654,7.3774-9.4465
		c-4.0913-2.749-13.2617-3.3671-20.6628-1.4717c-7.1174,1.6145-10.7402,5.4762-8.217,8.687
		c-5.489,1.2502-10.9536,2.1278-16.3281,2.5983c-19.9038,1.7184-38.896-1.8441-53.4832-8.7827
		c40.2185-12.6558,79.8264-31.0464,116.3435-54.4563l-39.7183-31.6742c-21.5693,11.4689-44.2773,20.9048-67.5823,28.2157
		c20.0874-11.1327,43.0164-21.0674,64.7319-30.4889c4.3528-23.2676,8.9365-47.8323,15.3201-69.8934
		c-1.9417,24.3475-6.0881,48.5861-12.4697,72.1666l39.7183,31.6741c14.6973-40.8108,23.813-83.5178,27.2021-125.5443
		c10.0103,12.6775,17.71,30.4009,20.4634,50.1881c0.7373,5.3441,1.0977,10.8671,1.1003,16.4968
		c-3.6919-1.7455-6.6504,2.6461-6.6406,9.944c-0.2012,7.6372,2.4424,16.4403,6.0325,19.8173
		c3.6289,3.4003,7.0942-0.6372,7.5684-9.2943c0.2271-7.6538-1.9111-15.3152-4.9609-18.843
		c0.0269-6.0297-0.3267-11.9746-1.1094-17.7614c-2.9526-21.5779-11.3389-40.6389-22.1682-54.0654
		c0.2444-3.2809,0.4185-6.593,0.6011-9.8593c8.5466,2.6024,17.5144,8.6719,25.9539,18.7122
		c16.1362,19.9093,26.2454,53.0614,27.5095,84.7213c0.1191,3.0049,0.1038,5.9633,0.0764,8.9396
		c-3.229-1.0735-5.9236,3.4526-6.2288,10.5205c-0.5132,6.4307,1.4033,14.8899,4.3855,21.0044
		c2.8669,5.9908,7.189,1.7192,8.2505-9.0651c0.636-9.0129-1.4321-17.8483-4.5347-21.2069c0.0352-3.0933,0.0586-6.1722-0.0579-9.3101
		c-1.238-33.02-11.8201-67.897-29.0334-88.9534c-8.5386-10.0828-17.5427-16.2752-26.1169-19.0997
		c0.1384-2.7666,0.2668-5.5253,0.3601-8.2894c27.3945,7.9828,56.0576,40.3705,70.7358,90.5744
		c16.353,45.5125,10.7126,107.3445-6.9912,134.0581l6.7063,5.3483c17.7786-29.812,25.8096-94.542,8.6843-146.8164
		c-18.9702-56.1768-50.9526-88.0879-78.8823-94.1542c0.0234-1.2552,0.0542-2.5073,0.0652-3.7581
		c38.9172-1.7767,85.0281,50.532,103.2515,112.9209c20.022,62.0521,8.4531,105.7997,6.6604,114.6499
		c-3.0049,15.2281-7.3879,28.1301-11.8147,39.4587l34.1101,27.202c3.2524-7.2738,6.2751-15.7745,8.9092-25.6704
		c4.2261-13.9283,19.5908-93.7491-18.3037-185.071C2350.7195,1004.341,2295.7166,950.2743,2252.8579,949.6382z M2228.1104,526.3345
		c22.8752-31.5341,92.5215-34.9712,152.6611-10.3201c60.9976,23.0352,87.9878,59.3562,93.7893,66.2758
		c10.0325,11.8439,17.3867,23.3149,23.4841,33.8392c-0.9272,12.1273-2.5762,25.6533-6.4761,40.6769
		c-2.2249,8.7516-10.783,53.1864-55.7454,100.4062c-43.4883,48.3035-107.7288,75.4252-142.021,56.939
		c0.533-1.1315,1.0486-2.2732,1.5718-3.4144c27.7961,6.6529,70.457-8.2216,111.9231-50.6042
		c38.1099-39.6673,58.9595-101.4714,55.8762-136.0448c-12.2229-32.4872-57.824-79.1246-109.3706-98.3282
		c-55.7488-20.1941-100.6384-15.0857-122.7954,2.9688C2230.041,527.9277,2229.0813,527.1229,2228.1104,526.3345z
		 M2354.3591,536.9468c45.7788,15.5913,90.6045,58.5528,100.4519,89.0498c4.3599,31.7498-17.3862,89.9057-51.8669,123.8157
		c-35.0068,38.8635-74.884,55.6075-103.0293,50.9135c1.1155-2.5306,2.1965-5.0719,3.2722-7.6246
		c8.9507,1.1754,19.75-0.4971,31.8174-5.8766c24.6448-11.5026,49.3115-38.3344,64.7537-67.5472
		c1.4666-2.7764,2.7813-5.5608,4.0918-8.363c4.2527-1.68,9.9495-8.7427,13.2869-17.1393
		c3.7227-10.1769,1.6821-15.9006-3.5002-11.7469c-5.3398,4.2151-10.7366,11.0049-13.0647,17.0214
		c-2.7917,6.5002-2.3276,11.7474,1.0474,12.1812c-1.2666,2.6935-2.5366,5.3655-3.9475,8.021
		c-14.8757,27.9762-38.3679,53.459-61.5447,64.3954c-11.9597,5.3842-22.6729,6.9617-31.5024,5.5982
		c1.2527-3.0223,2.533-6.0818,3.7363-9.1439c15.5825-7.3981,31.4084-20.9329,43.4309-39.0928
		c3.2158-4.874,6.114-10.0768,8.7061-15.5211c4.2781-1.8552,9.5286-7.8301,12.645-14.8245
		c3.3291-8.0056,1.9587-13.1467-2.7859-11.6576c-4.7002,1.4847-10.9011,8.2693-14.0337,15.2374
		c-3.1753,6.5709-2.4148,11.8113,1.6685,11.8405c-2.4448,5.0711-5.1658,9.8907-8.1489,14.3858
		c-11.0662,16.6329-25.6931,29.2604-40.2129,36.3389c15.1812-39.3348,25.498-81.7678,29.9636-124.9138v-0.0001
		c0-0.0001,0-0.0002,0-0.0002l-0.0002,0.0001c-22.7437-36.9359-50.4497-70.6901-81.1941-99.5427
		c16.1531,0.0778,34.8103,5.1083,51.9973,15.2926c4.6379,2.7556,9.1807,5.9172,13.5837,9.4254
		c-3.6665,1.7982-2.0776,6.8494,3.634,11.392c5.8457,4.9188,14.3765,8.3408,19.2551,7.6393
		c4.9209-0.717,3.925-5.9435-2.5479-11.7119c-5.8425-4.9496-13.1653-8.0547-17.825-7.8699
		c-4.6975-3.7805-9.5659-7.2109-14.5781-10.2066c-18.7114-11.1451-38.8425-16.4733-56.0918-16.3776
		c-2.4126-2.2366-4.8938-4.4377-7.3335-6.6172c7.3635-5.0596,17.7002-8.2866,30.8115-8.6248
		c25.6267-0.2024,57.8489,12.564,83.3899,31.3154c2.4236,1.78,4.7268,3.6367,7.0369,5.5138
		c-2.8525,1.8553-0.9939,6.7841,4.3416,11.4294c4.7078,4.4105,12.5166,8.1864,19.1563,9.6673
		c6.4714,1.4937,5.8264-4.5486-1.9431-12.1024c-6.6499-6.117-14.8474-10.0086-19.4077-9.6769
		c-2.3962-1.9562-4.7891-3.8942-7.3149-5.7594c-26.5879-19.6199-60.4536-33.092-87.6484-32.7625
		c-13.2068,0.389-23.6621,3.5676-31.2166,8.5105c-2.0764-1.8333-4.1536-3.6537-6.2563-5.4497
		C2262.7637,519.3374,2305.9565,517.1212,2354.3591,536.9468z M2286.5112,664.4102c-15.4775-17.9103-31.8252-36.8098-45.093-55.5557
		c17.8252,16.6985,34.1902,35.0526,48.6472,54.7444c-4.4814,24.0143-11.2622,47.6513-20.0769,70.4303
		C2273.8091,711.3831,2280.3376,687.2623,2286.5112,664.4102z M1624.0789,1307.4193c2.2192,1.6505,4.4561,3.2704,6.7053,4.8868
		c-3.1377,8.4648-3.9102,19.3656-1.3507,32.3275c5.7301,26.5865,26.4003,56.6052,51.4445,78.1606
		c2.3806,2.0479,4.8025,3.9491,7.2428,5.8501c0.6915,4.5199,6.3097,11.6456,13.7531,16.7678
		c9.0931,5.8938,15.1277,5.1781,12.2313-0.7987c-2.9213-6.1438-8.34-12.9163-13.6875-16.5247
		c-5.7159-4.1681-10.9349-4.8834-12.1089-1.6895c-2.3439-1.8344-4.6666-3.667-6.9415-5.6335
		c-23.9645-20.728-43.5811-49.3016-49.0857-74.3308c-2.5881-12.8579-1.7422-23.6536,1.552-31.9583
		c2.6677,1.8937,5.3657,3.8226,8.0831,5.6772c3.7451,16.8381,13.4191,35.2788,28.4484,51.0409
		c4.0361,4.22,8.4639,8.2031,13.1946,11.9415c0.8567,4.584,5.5135,11.0322,11.6389,15.6268
		c7.0642,5.027,12.3813,4.8351,11.9854-0.1219c-0.4016-4.9127-5.6362-12.468-11.7325-17.0726
		c-5.6996-4.5576-10.9779-4.9825-11.9148-1.0081c-4.3999-3.512-8.493-7.2372-12.2118-11.1456
		c-13.7534-14.4899-22.8096-31.5601-26.4797-47.2908c34.9705,23.5532,74.0439,43.0537,115.1147,57.0081v-50.8015
		c-22.415-9.7129-43.9504-21.5835-64.1968-35.246c21.2283,8.7642,43.2914,20.4963,64.1968,31.6002
		c20.9053-11.1039,42.9685-22.8361,64.1968-31.6002c-20.2463,13.6625-41.7817,25.5331-64.1968,35.246h0.0002v50.8015
		c41.0706-13.9543,80.1442-33.4548,115.1146-57.0081c-3.6703,15.7307-12.7264,32.8009-26.4797,47.2908
		c-3.7189,3.9084-7.8119,7.6337-12.2118,11.1456c-0.9373-3.9745-6.2153-3.5496-11.915,1.0081
		c-6.0962,4.6046-11.3308,12.1599-11.7324,17.0726c-0.396,4.957,4.9211,5.1489,11.9852,0.1219
		c6.1254-4.5946,10.7822-11.0428,11.6388-15.6268c4.731-3.7384,9.1584-7.7216,13.1948-11.9415
		c15.0293-15.7621,24.7031-34.2028,28.4482-51.0409c2.7175-1.8546,5.4155-3.7836,8.0833-5.6772
		c3.2941,8.3047,4.1401,19.1003,1.5521,31.9583c-5.505,25.0292-25.1215,53.6028-49.0859,74.3308
		c-2.2748,1.9666-4.5975,3.7992-6.9413,5.6335c-1.1741-3.194-6.3929-2.4786-12.1091,1.6895
		c-5.3477,3.6084-10.7664,10.3809-13.6875,16.5247c-2.8962,5.9768,3.1382,6.6925,12.2313,0.7987
		c7.4435-5.1222,13.0616-12.2479,13.7531-16.7678c2.4402-1.901,4.8622-3.8022,7.2428-5.8501
		c25.0442-21.5554,45.7145-51.5741,51.4445-78.1606c2.5593-12.9619,1.787-23.8627-1.3508-32.3275
		c2.2495-1.6165,4.4863-3.2363,6.7053-4.8868c10.8391,26.3953,3.3887,68.9987-26.7107,111.7758
		c-25.3872,41.162-77.2461,75.3037-109.1699,78.118c-31.924-2.8143-83.7828-36.9561-109.17-78.118
		C1620.6903,1376.418,1613.2397,1333.8146,1624.0789,1307.4193z M1883.6603,1449.6033
		c-36.0308,54.3427-77.4471,72.5739-85.4843,76.6901c-13.7794,7.1455-26.5994,11.7628-38.2163,15.3652
		c-11.6172-3.6024-24.437-8.2197-38.2164-15.3652c-8.0371-4.1162-49.4532-22.3474-85.4843-76.6901
		c-37.4154-53.1465-49.5623-121.8114-23.9089-151.1302c0.9847,0.7714,1.9829,1.528,2.979,2.2919
		c-12.6714,25.619-7.6626,70.5201,24.4302,120.3773c30.1924,45.9813,85.8076,80.0609,120.2004,84.7485
		c34.3926-4.6876,90.0077-38.7672,120.2003-84.7485c32.0927-49.8572,37.1014-94.7583,24.4301-120.3773
		c0.9961-0.7639,1.9944-1.5205,2.979-2.2919C1933.2225,1327.7919,1921.0757,1396.4568,1883.6603,1449.6033z"/>
	<path d="M2381.6814,959.7065c-8.1641-13.0387-17.3748-26.1339-26.958-39.3633l-9.3391-2.1315
		c10.1177,15.2014,20.1411,30.5002,26.8533,42.1709c10.3545,18.1,14.7024,29.9864,15.5674,32.5529
		c4.2749,10.9532,4.9014,13.0601,6.2473,20.5489c0.9009,3.1172,5.1375,9.0228,9.0034,8.5353
		c4.2007-0.3723,3.344-10.9073-0.23-20.6332C2401.1804,996.28,2393.9226,979.3196,2381.6814,959.7065z"/>
	<path d="M2192.6646,257.5249c-0.1138,0.1453,2.0815-33.2412,10.6055-55.0457c8.0266-23.3652,24.5881-24.9041,27.2102-23.8342
		c5.1235-0.6744,9.4998-3.8623,9.2727-10.3514c-0.1421-5.653-6.1538-12.8674-13.106-12.3788
		c-3.5564-1.6597-23.2346,7.7189-28.575,37.2682C2191.708,221.564,2192.626,257.7136,2192.6646,257.5249z"/>
	<path d="M2190.6587,221.6555c-2.2622-3.6288,4.8774-62.835,9.3079-59.6455c1.5085-2.9338,0.7175-10.123-1.7566-15.8417
		c-2.4724-5.6993-6.5142-7.0524-8.7727-2.7777C2183.0674,145.5276,2188.4023,221.2544,2190.6587,221.6555z"/>
	<path d="M2184.2068,190.3025c-2.4338-2.2766-6.3438-56.7222-2.009-53.5752c0.7288-2.459-1.1895-8.8643-4.1582-13.9976
		c-2.9656-5.1196-6.6877-5.7305-7.9539-1.0364C2164.6768,127.144,2182.603,192.4514,2184.2068,190.3025z"/>
	<path d="M1854.4907,594.2195c-10.5869,26.9087,10.0344,74.6869,13.6115,82.6049c-1.4091-4.0909-2.2681-18.2515,46.3457-29.1453
		c13.5031-3.0335,24.0691-7.1342,32.2765-12.0271l10.1837-8.1212l-10.1837,8.1212c-6.5966,6.913-12.9456,16.3015-18.9077,28.791
		c-21.438,44.9708-35.0527,40.9824-38.7275,38.6983c6.9236,5.2492,48.9153,35.9851,77.5051,31.6517
		c51.4478-7.8986,74.7441-52.9905,146.6479-58.0905c-10.1487,0.6849-46.5559-23.3383-80.5211-41.3672
		c-22.1906-11.7691-48.4828-24.1039-72.7834-10.2205c18.9425-20.6021,12.7678-48.9798,6.2316-73.2328
		c-10.0189-37.1255-25.3386-77.9657-22.4126-87.7074C1922.7847,533.141,1873.6393,545.8191,1854.4907,594.2195z"/>
	<path d="M1868.6311,677.9783c0,0-0.1974-0.4199-0.5289-1.1537C1868.3577,677.5662,1868.6311,677.9783,1868.6311,677.9783z"/>
	<path d="M1917.5515,457.3491c-7.3595-6.4287-12.2748-11.7097-12.6783-15.9967c0,0-32.4155,51.2826-22.3209,88.6735
		c35.5273-15.4204,55.4109-72.738,55.4109-72.738C1934.3597,459.6453,1927.1661,459.0947,1917.5515,457.3491z"/>
	<path d="M2236.3533,291.6482c-3.6946,1.2382-4.9495,8.3971-4.4084,11.5964c2.0364,7.3313,2.3862,9.5013,3.2871,21.2246
		c0.3342,2.6877,1.5745,15.2832,0.0986,36.0835c-0.9839,13.4272-3.3765,31.5601-5.8967,49.646l7.4893-5.9727
		c2.8943-16.0776,5.511-31.8723,7.2092-47.1619c2.519-22.9821,1.6995-41.4119,0.9661-46.7268
		C2244.0981,300.0243,2240.2993,290.1611,2236.3533,291.6482z"/>
	<path d="M2476.7222,469.4995c2.0234-6.6692-3.6724-14.136-9.1521-15.5321c-6.2759-1.6652-10.3577,1.892-12.155,6.7368
		c0.4595,2.7943-4.7263,18.598-29.2917,21.2245c-23.1545,3.4583-56.1921-1.8306-56.0254-1.9093
		c-0.1924-0.0044,34.8462,8.9344,63.9319,9.0455C2464.0266,490.4337,2477.5491,473.3359,2476.7222,469.4995z"/>
	<path d="M2464.8428,494.1544c2.124,5.0293-57.1865-1.1852-60.2212-4.1979c-0.1108,2.2891,72.53,24.3411,76.031,18.6064
		c4.6697-1.2505,4.2505-5.4922-0.7561-9.1707C2474.8721,495.7076,2468.0391,493.3367,2464.8428,494.1544z"/>
	<path d="M2433.7529,503.2234c-2.4521,1.0857,57.229,33.0945,63.7468,29.0341c4.8582-0.1897,5.0908-3.9545,0.7595-7.985
		c-4.344-4.0365-10.1619-7.3318-12.7214-7.1687C2487.6411,522.03,2435.4307,506.1025,2433.7529,503.2234z"/>
	<path d="M1889.0891,703.1416c-0.6416-0.4866-1.0071-0.7724-1.0071-0.7724S1888.4229,702.7275,1889.0891,703.1416z"/>
	<path d="M2035.4226,721.7195c34.207,18.1619,91.417-2.0297,91.417-2.0297c-4.0896-1.3472-8.1443-7.3146-12.7742-15.92
		c0.4375-9.7619,1.5017-16.8977,4.6016-19.886C2118.667,683.8838,2058.3621,690.5143,2035.4226,721.7195z"/>
	<path d="M2300.364,406.8296c16.1155,0.7935,27.7483-0.9824,25.5964-3.929c-2.1243-2.8748-14.5034-5.5604-28.9604-6.1521
		c-4.564-0.1229-24.8254-0.4626-50.1958-0.402c5.7043-24.7209,9.8821-44.5498,10.7776-49.0265
		c2.6404-14.2266,2.7764-26.8928,0.4465-29.6038c-2.394-2.7534-6.7139,8.1924-9.5261,24.0806
		c-1.072,5.4971-5.241,31.6501-10.6057,61.6531C2268.3411,404.8962,2294.7661,406.6511,2300.364,406.8296z"/>
	<path d="M2287.3083,390.7695c13.2158-1.489,19.2073-5.2432,13.7837-7.7043c-5.3291-2.4126-16.9636-2.9827-27.9861-1.5474
		c-1.3403,0.2024-4.6553,0.7068-9.478,1.4117c1.7607-4.5447,2.99-7.6644,3.4856-8.9261c3.8523-10.4265,5.8853-21.8961,4.719-27.6285
		c-1.1926-5.835-6.1858-0.8295-10.5784,11.7238c-1.2063,3.1162-5.4844,16.988-10.907,35.4222
		C2269.5259,392.3362,2284.002,391.2524,2287.3083,390.7695z"/>
	<path d="M2236.9231,404.2264l-7.4893,5.9725c18.1931,1.5674,36.4038,3.2698,49.7131,5.2983
		c20.6074,3.1897,32.6113,7.2017,35.157,8.1255c11.2288,3.4868,13.2668,4.3109,19.9612,7.9277
		c2.999,1.239,10.2573,1.6089,12.2866-1.7175c2.3281-3.5164-6.4426-9.4148-16.2749-12.6848
		c-5.0183-1.8975-22.8037-6.7979-45.7703-9.4558C2269.2227,405.9456,2253.2417,404.9824,2236.9231,404.2264z"/>
	<path d="M2269.3162,378.3936h0.0002c0,0-0.0002,0.0001-0.0002,0.0002l0.0007-0.0005c4.8765-1.9115,7.8289-4.0625,8.1689-6.5148
		c-2.4663-0.2141-5.2205,2.1859-8.1692,6.5148L2269.3162,378.3936z"/>
	<path d="M1617.6689,117.6687c0.0426,0.1797-24.6912-22.3527-36.424-42.6121c-13.2628-20.8436-4.1403-34.7515-1.6692-36.1344
		c2.6674-4.4261,2.9033-9.8351-2.3114-13.7035c-4.5081-3.4136-13.8972-3.2114-17.8496,2.5286
		c-3.515,1.7456-8.4517,22.978,11.3213,45.5771C1588.9575,95.9956,1617.7925,117.8164,1617.6689,117.6687z"/>
	<path d="M1588.3748,96.8727c-4.2476-0.494-46.0854-42.9904-40.8293-44.4657c-1.3535-3.0085-7.4673-6.8723-13.481-8.5037
		c-5.9973-1.6206-9.5752,0.696-7.6414,5.1268C1524.1224,55.3428,1586.6543,98.3866,1588.3748,96.8727z"/>
	<path d="M1559.8394,82.3688c-3.2975,0.4833-48.3027-30.406-43.1395-31.8331c-1.4683-2.1028-7.672-4.5969-13.5365-5.4762
		c-5.8516-0.8734-8.6499,1.6558-5.769,5.5724C1498.283,58.2593,1560.5193,84.9628,1559.8394,82.3688z"/>
	<path d="M1744.3611,633.1567c0,0-0.4514-0.1074-1.2317-0.306C1743.8684,633.1136,1744.3611,633.1567,1744.3611,633.1567z"/>
	<path d="M1602.3677,457.3491c-9.6145,1.7457-16.8081,2.2961-20.4115-0.0613c0,0,19.8837,57.3176,55.4108,72.7383
		c10.0947-37.3911-22.3208-88.6736-22.3208-88.6736C1614.6426,445.6394,1609.7271,450.9205,1602.3677,457.3491z"/>
	<path d="M1759.9597,173.2876c20.1125-22.9008,37.9602-42.4666,41.5898-46.7319c10.6685-12.105,16.5327-22.3069,12.8875-22.4617
		c-3.572-0.1316-13.39,7.8726-22.8665,18.8064c-2.9417,3.4915-15.8401,19.1208-31.6108,38.9939
		c-15.7708-19.873-28.6694-35.5026-31.6111-38.9939c-9.4763-10.9338-19.2944-18.938-22.8665-18.8064
		c-3.6451,0.1548,2.219,10.3567,12.8875,22.4617C1721.9993,130.821,1739.8472,150.3868,1759.9597,173.2876z"/>
	<path d="M1759.9597,157.3627c11.0315-15.7332,19.2097-27.7269,20.8937-30.6129c7.0756-11.261,7.8761-18.2856,2.5704-15.5798
		c-5.2087,2.6621-12.9084,11.4028-18.6587,20.9154c-0.6772,1.1741-2.35,4.0802-4.8054,8.2904
		c-2.4556-4.2102-4.1284-7.1163-4.8058-8.2904c-5.75-9.5126-13.4497-18.2533-18.6587-20.9154
		c-5.3055-2.7058-4.505,4.3188,2.5707,15.5798C1740.7498,129.6357,1748.928,141.6296,1759.9597,157.3627z"/>
	<path d="M1677.9049,115.4641c7.0015,2.9788,8.9163,4.0583,18.6437,10.6633c2.3096,1.4143,12.9304,8.298,28.2726,22.4208
		c9.8844,9.1407,22.5695,22.3171,35.1383,35.5638l0.0002-9.5791c-10.7656-12.2874-21.4829-24.1809-32.3781-35.0415
		c-16.3973-16.2988-31.3175-27.1488-35.9301-29.8888c-8.6868-5.6486-18.7668-8.8282-20.0647-4.8156
		C1670.2516,108.4478,1675.0663,113.8918,1677.9049,115.4641z"/>
	<path d="M1949.1833,73.3246c19.7727-22.599,14.8362-43.8314,11.3212-45.577c-3.9523-5.7401-13.3417-5.9424-17.8497-2.5288
		c-5.2146,3.8685-4.9785,9.2775-2.3115,13.7036c2.4712,1.3828,11.5938,15.2908-1.6689,36.1345
		c-11.7327,20.2593-36.4666,42.7915-36.424,42.6119C1902.1268,117.8164,1930.9619,95.9956,1949.1833,73.3246z"/>
	<path d="M1931.5444,96.8727c1.7206,1.5139,64.2522-41.5299,61.9517-47.8425c1.9338-4.4308-1.644-6.7474-7.6414-5.1268
		c-6.0137,1.6313-12.1276,5.4951-13.4808,8.5037C1977.63,53.8823,1935.792,96.3787,1931.5444,96.8727z"/>
	<path d="M1960.08,82.3688c-0.6802,2.594,61.556-24.1095,62.4452-31.7369c2.8806-3.9166,0.0825-6.4458-5.7693-5.5724
		c-5.8644,0.8793-12.0684,3.3734-13.5364,5.4762C2008.3824,51.9628,1963.3772,82.8521,1960.08,82.3688z"/>
	<path d="M1813.3301,478.2786c-23.0369,10.0112-49.0731,22.877-53.3704,50.5319c-4.2974-27.655-30.3337-40.5206-53.3706-50.5319
		c-35.2727-15.3142-76.7543-28.8003-82.5463-37.1619c40.8441,59.3965,20.1146,105.7245,46.0165,150.8729
		c14.4375,25.0543,64.6492,38.7212,73.0701,40.8612c-4.077-1.4491-15.6838-9.6065,6.1093-54.4063
		c6.0472-12.4484,9.4291-23.2659,10.7211-32.7336c1.2917,9.4678,4.6736,20.2852,10.7207,32.7336
		c21.7932,44.7997,10.1865,52.9572,6.1095,54.4063c8.4208-2.1401,58.6324-15.8071,73.0699-40.8613
		c25.9017-45.1483,5.1724-91.4764,46.0166-150.8729C1890.0842,449.4783,1848.6025,462.9644,1813.3301,478.2786z"/>
	<path d="M1776.7899,632.8509c-0.7804,0.1984-1.2317,0.306-1.2317,0.306S1776.0508,633.1136,1776.7899,632.8509z"/>
	<path d="M1963.8521,333.4773c5.3196-5.1572,11.9568-9.386,19.4948-12.7539l6.5592-13.6206
		c-17.0862,3.3896-33.1145,8.927-47.0406,16.7545c-71.0668,19.5812-134.0663,49.6239-182.9056,49.8717
		c-48.8396-0.2478-111.839-30.2905-182.906-49.8717c-13.926-7.8275-29.9543-13.3649-47.0408-16.7545l6.5596,13.6206
		c7.5378,3.3677,14.175,7.5967,19.4945,12.7539c18.708,18.1963,13.2826,28.3701,2.0643,32.0139l13.9478,28.9629
		c6.9459-1.5991,11.6997-4.454,12.4067-6.8638c0,0,36.1564,80.8474,97.9771,42.7979c0,0,22.8536-21.4263-1.0049-44.0725
		c0,0-0.1707-0.085-0.4283-0.2084c-5.7188-5.2782-13.3427-6.4382-17.8895-2.673c-5.0554,4.2039-4.641,12.7285,0.8195,19.4395
		c0.7069,0.8677,1.4728,1.6528,2.27,2.3691c0.7739,0.9141,1.6783,1.7723,2.7849,2.5276c0,0-15.2494,24.1162-45.6968-3.5071
		c4.0282-28.892-10.0066-54.3422-32.8856-71.6445c64.5986,19.6609,123.1361,46.6619,169.5276,48.0195
		c46.3914-1.3577,104.9288-28.3586,169.5275-48.0195c-22.879,17.3022-36.9139,42.7526-32.8856,71.6445
		c-30.4475,27.6233-45.6968,3.5071-45.6968,3.5071c1.1067-0.7554,2.011-1.6135,2.7849-2.5276
		c0.7972-0.7163,1.563-1.5016,2.27-2.3691c5.4602-6.7109,5.8748-15.2357,0.8193-19.4395
		c-4.5469-3.7654-12.1707-2.6052-17.8894,2.673c-0.2578,0.1234-0.4282,0.2084-0.4282,0.2084
		c-23.8586,22.6462-1.0049,44.0725-1.0049,44.0725c61.8203,38.0494,97.9768-42.7979,97.9768-42.7979
		c0.707,2.4097,5.4609,5.2645,12.4067,6.8638l13.9479-28.9629C1950.5697,361.8474,1945.1443,351.6736,1963.8521,333.4773z"/>
	<path d="M1795.0981,148.5482c15.3418-14.1227,25.9629-21.0063,28.2726-22.4208c9.7274-6.605,11.642-7.6846,18.6437-10.6633
		c2.8384-1.5723,7.6533-7.0164,6.3177-10.677c-1.2977-4.0125-11.3778-0.8329-20.0647,4.8157
		c-4.6124,2.74-19.5327,13.59-35.9301,29.8888c-10.8951,10.8604-21.6123,22.754-32.3777,35.0414v9.5791
		C1772.5287,170.8654,1785.2136,157.689,1795.0981,148.5482z"/>
	<path d="M1759.9597,122.6509c-1.7053,1.7948-1.5461,5.4446,0,10.4495C1761.5056,128.0955,1761.665,124.4457,1759.9597,122.6509z"/>
	<path d="M1085.8894,489.0649c29.0857-0.111,64.1244-9.0499,63.9319-9.0454c0.1669,0.0787-32.8708,5.3674-56.0254,1.9092
		c-24.5657-2.6263-29.7512-18.4302-29.2917-21.2245c-1.7974-4.8448-5.8792-8.402-12.155-6.7367
		c-5.4796,1.396-11.1755,8.8628-9.1521,15.532C1042.3704,473.3359,1055.8926,490.4337,1085.8894,489.0649z"/>
	<path d="M1039.2666,508.563c3.501,5.7346,76.1418-16.3174,76.031-18.6064c-3.0347,3.0127-62.3452,9.2272-60.2214,4.1979
		c-3.1959-0.8177-10.0289,1.5532-15.0536,5.2379C1035.0162,503.0708,1034.5968,507.3125,1039.2666,508.563z"/>
	<path d="M1022.4195,532.2574c6.5176,4.0607,66.1989-27.9484,63.7468-29.0341c-1.678,2.8793-53.8884,18.8066-51.7852,13.8804
		c-2.5593-0.1633-8.3774,3.1321-12.7213,7.1686C1017.3287,528.303,1017.5614,532.0676,1022.4195,532.2574z"/>
	<path d="M1559.9814,625.115c-24.3008-13.8832-50.5929-1.5486-72.7832,10.2205c-33.9653,18.029-70.3726,42.0522-80.5212,41.3672
		c71.9039,5.0999,95.2001,50.1918,146.6478,58.0905c28.5897,4.3334,70.5817-26.4025,77.5051-31.6517
		c-3.6747,2.284-17.2894,6.2725-38.7274-38.6983c-5.962-12.4894-12.3113-21.878-18.9077-28.791l-2.0625-1.6449l2.0625,1.6447
		c8.2073,4.8929,18.7734,8.9935,32.2764,12.0271c48.6138,10.8937,47.7548,25.0544,46.3457,29.1453
		c3.5771-7.918,24.1982-55.6962,13.6116-82.6049c-19.1487-48.4005-68.2941-61.0784-89.2662-130.0447
		c2.9261,9.7417-12.3934,50.5819-22.4124,87.7073C1547.2136,576.135,1541.0391,604.5128,1559.9814,625.115z"/>
	<path d="M1630.8298,703.1416c0.6663-0.4141,1.0073-0.7724,1.0073-0.7724S1631.4718,702.655,1630.8298,703.1416z"/>
	<path d="M1219.5553,406.8296c5.5977-0.1785,32.0226-1.9333,62.4672-3.3796l0.0002,0.0002c0-0.0002,0-0.0002,0-0.0002
		c-5.3647-30.0032-9.5339-56.156-10.6056-61.6532c-2.8124-15.8883-7.1323-26.8339-9.5261-24.0806
		c-2.33,2.7109-2.1937,15.3771,0.4462,29.6036c0.8958,4.4768,5.0732,24.3057,10.7777,49.0266
		c-25.3704-0.0607-45.632,0.2791-50.1957,0.402c-14.457,0.5917-26.8359,3.2773-28.9604,6.152
		C1191.8069,405.8472,1203.4395,407.623,1219.5553,406.8296z"/>
	<path d="M1232.6108,390.7695c3.3063,0.4827,17.7825,1.5667,36.9612,2.7513c-5.4226-18.4342-9.7006-32.306-10.9071-35.4222
		c-4.3926-12.553-9.3856-17.5586-10.5782-11.7236c-1.1664,5.7324,0.8668,17.2019,4.7189,27.6287
		c0.4955,1.2615,1.725,4.3813,3.4855,8.926c-4.8225-0.7051-8.1377-1.2094-9.478-1.4116
		c-11.0222-1.4355-22.6569-0.8654-27.9861,1.5472C1213.4038,385.5265,1219.3951,389.2805,1232.6108,390.7695z"/>
	<path d="M1185.6541,431.5505c6.6943-3.6168,8.7322-4.4409,19.9611-7.9276c2.5459-0.924,14.5498-4.9359,35.1571-8.1256
		c13.3093-2.0286,31.52-3.731,49.7131-5.2983l-7.4893-5.9724c-16.3186,0.7559-32.2996,1.719-47.5837,3.4658
		c-22.9666,2.6577-40.7518,7.5583-45.77,9.4559c-9.8324,3.2699-18.603,9.1683-16.275,12.6847
		C1175.3967,433.1593,1182.6553,432.7896,1185.6541,431.5505z"/>
	<path d="M1289.4391,178.6449c2.6219-1.0697,19.1835,0.4691,27.2101,23.8344c8.524,21.8044,10.7195,55.1909,10.6056,55.0457
		c0.0385,0.1887,0.9564-35.9608-5.4075-64.3418c-5.3405-29.5496-25.0184-38.928-28.5748-37.2683
		c-6.9521-0.4885-12.9641,6.7261-13.1062,12.3789C1279.9395,174.7827,1284.3154,177.9705,1289.4391,178.6449z"/>
	<path d="M1329.2605,221.6555c2.2563-0.4011,7.5913-76.1279,1.2214-78.2649c-2.2585-4.2747-6.3004-2.9216-8.7728,2.7777
		c-2.4742,5.7186-3.2651,12.9078-1.7567,15.8417C1324.3832,158.8203,1331.5225,218.0267,1329.2605,221.6555z"/>
	<path d="M1349.8333,121.6934c-1.266-4.6941-4.988-4.0833-7.9536,1.0364c-2.969,5.1333-4.887,11.5386-4.1582,13.9976
		c4.3347-3.147,0.4246,51.2986-2.0092,53.5752C1337.3164,192.4514,1355.2424,127.144,1349.8333,121.6934z"/>
	<path d="M1651.8171,676.8245c-0.3315,0.7339-0.5289,1.1537-0.5289,1.1537S1651.5615,677.5662,1651.8171,676.8245z"/>
	<path d="M1387.4844,422.0302c-7.0256,16.9469-12.9656,34.047-18.2795,50.9454l53.0542,42.3093
		c2.3821-10.3298,5.0103-20.6199,8.0071-30.8008c6.1802-25.1368,14.0479-50.3276,24.0906-74.9216
		c29.3987-25.2015,53.3958-68.2107,74.957-103.9116c41.3555,5.4019,89.9434,13.4559,127.9766,6.1841
		c25.49,7.4823,50.0901,17.0376,73.5964,27.8782c9.8279,4.0046,19.5117,8.3655,29.073,12.9436c0,0,0,0,0.0002,0
		c9.561-4.5781,19.2449-8.939,29.0729-12.9436c23.5061-10.8406,48.1063-20.3958,73.5963-27.8782
		c38.0332,7.2719,86.6212-0.7822,127.9766-6.1841c21.5612,35.7009,45.5585,78.7102,74.957,103.9116
		c10.0427,24.594,17.9104,49.7848,24.0906,74.9216c2.9966,10.1809,5.625,20.4709,8.0071,30.8008l53.0542-42.3093
		c-5.3142-16.8982-11.2539-33.9985-18.2798-50.9454c38.3386-19.1687,64.4355-91.7463,57.9065-164.8918
		c-5.4812-98.72-53.9575-163.9694-63.8081-174.6847c-6.667-7.7732-13.0786-14.1205-19.1648-19.2631l-0.0002,0.0002
		c-7.8152-1.5524-16.7754-2.6075-27.0093-2.9738c-14.5193-1.0208-95.7579,1.7616-176.3578,59.0272
		c-61.2584,40.5009-101.7303,106.1558-92.8135,148.0814c-17.6301,5.0732-34.703,11.0911-51.2279,17.4722
		c-16.5249-6.3809-33.5977-12.3989-51.2278-17.4722c8.9167-41.9257-31.5553-107.5806-92.8137-148.0814
		c-80.5996-57.2657-161.8384-60.048-176.3577-59.0272c-10.2341,0.3661-19.194,1.4211-27.0093,2.9738l-0.0002-0.0002
		c-6.0863,5.1426-12.4978,11.4899-19.1648,19.2631c-9.8508,10.7152-58.3269,75.9646-63.8082,174.6847
		C1323.0488,330.2838,1349.146,402.8613,1387.4844,422.0302z M1994.2971,297.9851c-23.6528,0.9338-48.6215,1.9312-71.55,0.6167
		c24.1691-3.5248,48.7224-4.876,73.132-3.9014c15.981,18.4764,30.2333,38.5155,42.5465,59.6095
		C2023.1023,337.203,2008.3143,317.0598,1994.2971,297.9851z M2109.23,372.4971c-1.2832-2.45-2.5957-4.8796-3.9209-7.3123
		c6.4995-6.2651,11.9253-15.751,15.2434-28.5398c6.3728-26.4397,0.7742-62.4543-12.4373-92.7415
		c-1.2563-2.8778-2.6135-5.6416-3.9873-8.4133c1.3381-4.3721-0.6318-13.2299-5.1157-21.0743
		c-5.6355-9.2557-11.3828-11.2289-11.3667-4.5875c-0.0337,6.8029,1.9102,15.2559,5.1624,20.8271
		c3.3416,6.2354,7.7332,9.144,10.1768,6.776c1.3159,2.6697,2.6135,5.3285,3.8098,8.0875
		c12.5977,29.0731,17.8738,63.3281,11.9739,88.2672c-3.2473,12.7076-8.6936,22.067-15.2644,28.1201
		c-1.582-2.8638-3.176-5.7722-4.8196-8.6222c3.9316-16.7955,3.2168-37.6074-3.4854-58.3295
		c-1.8054-5.5533-4.0664-11.0631-6.7068-16.484c1.2173-4.5015-0.1807-12.3318-3.7061-19.1293
		c-4.1833-7.5941-9.0571-9.7281-10.8513-5.0902c-1.7695,4.6003-0.3315,13.6785,3.1631,20.4724
		c3.1577,6.5793,7.7288,9.2522,10.2979,6.0779c2.4402,5.0731,4.5117,10.2054,6.1663,15.3405
		c6.1045,19.0223,6.8572,38.3312,3.3389,54.0966c-21.2881-36.3938-48.0313-70.9165-78.98-101.3091v0.0005
		c-43.0581-5.2473-86.7229-4.6313-128.4497,1.4163c10.1321-12.5804,25.698-24.0308,44.3762-31.1184
		c5.0463-1.9081,10.3503-3.4883,15.8384-4.7435c-0.8802,3.9874,4.0597,5.8949,11.1724,4.2614
		c7.4905-1.5034,15.4846-6.0393,17.978-10.291c2.5076-4.2946-2.1998-6.7745-10.7454-5.3103
		c-7.5122,1.4817-14.5059,5.2711-17.2666,9.0294c-5.8845,1.3156-11.6017,2.983-17.0691,5.0339
		c-20.3799,7.6803-37.0969,20.0974-47.777,33.6431c-3.2531,0.4919-6.5208,1.0592-9.746,1.6079
		c0.6353-8.9116,4.5571-19.0052,12.4677-29.4669c15.8196-20.162,45.8911-37.3948,76.476-45.6722
		c2.9031-0.7848,5.7908-1.4281,8.6982-2.064c-0.3281,3.3871,4.6843,5.0071,11.6429,3.7318
		c6.3835-0.9307,14.2042-4.6816,19.5018-8.9495c5.2026-4.1282,0.0765-7.3911-10.6736-6.0265
		c-8.9287,1.3854-17.082,5.3678-19.6663,9.14c-3.0234,0.6542-6.0303,1.3162-9.0638,2.1282
		c-31.9165,8.5547-63.5643,26.6321-80.2623,48.0996c-7.9299,10.5679-11.9639,20.7241-12.8094,29.712
		c-2.7279,0.4805-5.4462,0.9694-8.1615,1.4935c1.6866-28.4844,26.8843-63.6359,72.563-89.1172
		c40.7325-26.0703,102.2695-34.3303,132.2529-23.0148v-0.0001c27.5413,16.3867,59.4509,69.6483,64.4644,117.7488
		C2142.2205,311.8015,2130.4482,353.4188,2109.23,372.4971z M1937.0468,131.7659c56.041-33.3279,101.266-31.7836,110.2933-32.005
		c15.5149-0.4591,29.0686,0.943,41.0984,2.7379c8.9036,8.2861,18.4504,18.0085,27.7651,30.4248
		c5.4551,7.1959,34.8596,41.5914,43.7439,106.1858c10.6506,64.1172-8.198,131.2526-44.0317,146.5372
		c-0.5525-1.1219-1.1235-2.2368-1.6897-3.3574c22.5322-17.5839,37.5012-60.2118,30.219-119.0562
		c-7.2522-54.5277-42.5728-109.3628-71.5256-128.5087l-0.0002,0.0002c-33.0205-10.699-97.9146-4.1246-145.0674,24.2029
		c-50.547,30.9954-74.5413,69.2766-74.2405,97.8564c-1.2292,0.2559-2.4568,0.5048-3.6787,0.7722
		C1839.5406,220.01,1880.2773,163.4154,1937.0468,131.7659z M1647.376,253.0911c-0.8456-8.9878-4.8794-19.1442-12.8093-29.7122
		c-16.698-21.4673-48.3457-39.5448-80.2625-48.0995c-3.0333-0.8121-6.0403-1.474-9.0637-2.1282
		c-2.5841-3.7721-10.7375-7.7546-19.6663-9.14c-10.75-1.3647-15.8762,1.8982-10.6735,6.0266
		c5.2977,4.2678,13.1183,8.0186,19.5018,8.9495c6.9585,1.2751,11.9708-0.3447,11.6428-3.7319
		c2.9076,0.636,5.7955,1.2793,8.6984,2.064c30.5851,8.2775,60.6564,25.5103,76.4757,45.6722
		c7.9106,10.4618,11.8325,20.5553,12.468,29.4669c-3.2253-0.5486-6.493-1.116-9.7458-1.6079
		c-10.6802-13.5457-27.3972-25.9626-47.7771-33.6431c-5.4675-2.0508-11.1847-3.7184-17.0692-5.0339
		c-2.7606-3.7583-9.754-7.5476-17.2665-9.0293c-8.5457-1.4644-13.2529,1.0156-10.7456,5.3102
		c2.4937,4.2518,10.4877,8.7877,17.978,10.2911c7.1128,1.6335,12.0527-0.2739,11.1726-4.2615
		c5.4879,1.2552,10.7922,2.8354,15.8385,4.7435c18.6782,7.0875,34.244,18.538,44.3761,31.1185
		c-41.7268-6.0479-85.3916-6.6637-128.4497-1.4163l22.0415,45.7705c24.4094-0.9746,48.9626,0.3767,73.1318,3.9014
		c-22.9287,1.3145-47.8972,0.3171-71.55-0.6167c-14.0173,19.0747-28.8052,39.218-44.1287,56.3247
		c12.3135-21.094,26.5659-41.1331,42.5466-59.6095l-22.0419-45.771c-30.9486,30.3925-57.6918,64.9152-78.9797,101.309
		c-3.5187-15.7654-2.7657-35.0742,3.3387-54.0964c1.6543-5.135,3.726-10.2675,6.1664-15.3405
		c2.5688,3.1742,7.14,0.5013,10.2975-6.078c3.4948-6.7938,4.9329-15.8719,3.1633-20.4724
		c-1.7942-4.6378-6.668-2.5039-10.8513,5.0903c-3.5254,6.7974-4.9231,14.6277-3.7062,19.1292
		c-2.6403,5.4211-4.9012,10.9308-6.7067,16.4841c-6.7021,20.722-7.417,41.5339-3.4854,58.3295
		c-1.6436,2.85-3.2375,5.7584-4.8193,8.6222c-6.571-6.0532-12.0175-15.4125-15.2646-28.1201
		c-5.9001-24.939-0.6238-59.1941,11.9739-88.2673c1.1963-2.7588,2.4939-5.4177,3.8097-8.0874
		c2.4437,2.3682,6.8352-0.5405,10.1766-6.776c3.2524-5.5712,5.1962-14.0243,5.1624-20.827
		c0.0161-6.6416-5.7312-4.6682-11.3666,4.5874c-4.484,7.8445-6.454,16.7021-5.1158,21.0745
		c-1.3737,2.7715-2.7308,5.5353-3.9873,8.4133c-13.2114,30.2869-18.8098,66.3015-12.4371,92.7412
		c3.3182,12.7888,8.7437,22.2748,15.2434,28.54c-1.3251,2.4324-2.6378,4.8622-3.921,7.312
		c-21.2183-19.0781-32.9902-60.6953-24.4321-112.2957c5.0135-48.1005,36.9231-101.3619,64.4646-117.7488v0.0001
		c29.9834-11.3156,91.5205-3.0555,132.2528,23.0148c45.679,25.4813,70.8766,60.6328,72.5634,89.1172
		C1652.8221,254.0603,1650.1039,253.5715,1647.376,253.0911z M1359.9717,239.1091c8.8843-64.5941,38.2888-98.9896,43.744-106.1857
		c9.3146-12.4164,18.8615-22.1387,27.765-30.4249l0.0002,0.0002c12.0295-1.7949,25.5833-3.197,41.0983-2.738
		c9.0273,0.2214,54.2523-1.3228,110.2933,32.0051c56.7693,31.6494,97.5061,88.2441,87.114,125.79
		c-1.2217-0.2676-2.4495-0.5165-3.6785-0.7723c0.3009-28.5797-23.6936-66.8611-74.2405-97.8563
		c-47.1531-28.3276-112.0469-34.9019-145.0676-24.2029l-0.0001-0.0004c-28.9529,19.1459-64.2736,73.981-71.5256,128.5087
		c-7.2823,58.8444,7.6869,101.4723,30.2189,119.0562c-0.566,1.1205-1.137,2.2354-1.6895,3.3574
		C1368.1697,370.3617,1349.321,303.2266,1359.9717,239.1091z"/>
	<path d="M1282.9961,404.2263l7.4893,5.9724c-2.5203-18.0859-4.9128-36.2186-5.8965-49.6458
		c-1.476-20.8003-0.2358-33.3959,0.0985-36.0835c0.9008-11.7234,1.2506-13.8936,3.2872-21.2247
		c0.5408-3.1993-0.7139-10.3583-4.4084-11.5966c-3.9463-1.4871-7.7452,8.3762-8.7454,18.6897
		c-0.7332,5.3148-1.5532,23.7446,0.9663,46.7266C1277.4851,372.354,1280.1021,388.1487,1282.9961,404.2263z"/>
	<path d="M1250.6021,378.3933l0.0007,0.0005c-0.0001,0-0.0002-0.0002-0.0002-0.0002s0.0002,0,0.0004,0l-0.0006-0.0006
		c-2.9486-4.3287-5.7026-6.7286-8.1692-6.5144C1242.7732,374.3308,1245.7258,376.4818,1250.6021,378.3933z"/>
	<path d="M1108.6313,1127.3433c18.0479-22.8092,32.9053-55.777,32.7888-55.6235c0.1656-0.0815-16.2981,29.046-33.4385,44.9927
		c-17.3696,17.5686-32.9587,11.7695-34.8569,9.6681c-4.9086-1.6156-10.2344-0.642-12.8457,5.3027
		c-2.325,5.1547-0.0385,14.2634,6.4373,16.8394C1069.2002,1151.5612,1090.9988,1151.6492,1108.6313,1127.3433z"/>
	<path d="M1127.6641,1104.9071c0.4636,4.2509-31.6575,54.4962-34.2654,49.7003c-2.6321,1.9888-5.0386,8.8092-5.2906,15.0349
		c-0.2454,6.2078,2.8092,9.1803,6.6986,6.3091C1101.473,1176.7896,1129.5229,1106.2474,1127.6641,1104.9071z"/>
	<path d="M1119.8735,1135.9545c1.2048,3.1071-18.8955,53.8574-21.4353,49.1415c-1.7234,1.8992-2.7747,8.5026-2.3269,14.4155
		c0.4507,5.8993,3.5391,8.0647,6.7164,4.3848C1110.0659,1201.3322,1122.2512,1134.7141,1119.8735,1135.9545z"/>
	<path d="M1592.1909,915.0965c21.2133-19.6505,23.3645-71.6445,23.5771-80.3303c-0.5056,4.2972-5.8757,17.4283-54.4017,6.1505
		c-13.4819-3.1258-24.7808-4.0156-34.2985-3.1683l-16.4763,3.7605c-26.0061,10.3428-32.7554,38.5896-37.3894,63.2767
		c-7.0814,37.796-10.9988,81.2386-17.8618,88.7461C1504.1587,940.4948,1553.9381,950.3954,1592.1909,915.0965z"/>
	<path d="M1615.792,833.4971c0,0-0.0042,0.4639-0.024,1.2689C1615.8596,833.9869,1615.792,833.4971,1615.792,833.4971z"/>
	<path d="M1156.2462,1217.1564c-1.7926-8.8502-13.3617-52.5978,6.6602-114.6499c18.2235-62.3888,64.3345-114.6975,103.2515-112.9208
		c0.0109,1.2508,0.0416,2.5029,0.0654,3.7581c-27.9301,6.0662-59.9125,37.9774-78.8827,94.1542
		c-17.1248,52.2744-9.0942,117.0044,8.6846,146.8164l6.7062-5.3483c-17.7039-26.7136-23.3442-88.5457-6.9912-134.0581
		c14.6779-50.2039,43.3412-82.5917,70.7357-90.5745c0.0931,2.7641,0.2214,5.5229,0.3601,8.2894
		c-8.5745,2.8244-17.5786,9.017-26.1169,19.0997c-17.2134,21.0564-27.7954,55.9333-29.0333,88.9534
		c-0.1167,3.1378-0.0931,6.2168-0.058,9.3101c-3.1025,3.3586-5.1709,12.194-4.5347,21.2069
		c1.0615,10.7843,5.3835,15.0559,8.2505,9.0651c2.9822-6.1145,4.8986-14.5737,4.3855-21.0044
		c-0.3051-7.0679-2.9998-11.594-6.229-10.5205c-0.0271-2.9763-0.0426-5.9347,0.0767-8.9396
		c1.2643-31.6599,11.3733-64.812,27.5096-84.7213c8.4391-10.0403,17.4071-16.1098,25.9537-18.7122
		c0.1826,3.2664,0.3567,6.5784,0.6011,9.8594c-10.8296,13.4264-19.2155,32.4874-22.1682,54.0653
		c-0.7826,5.7867-1.1362,11.7317-1.1094,17.7614c-3.0498,3.5278-5.1877,11.1892-4.9608,18.843
		c0.4742,8.6571,3.9396,12.6946,7.5682,9.2943c3.5903-3.377,6.2336-12.1801,6.0327-19.8173
		c0.0095-7.2979-2.949-11.6895-6.6407-9.944c0.0023-5.6298,0.3629-11.1527,1.1001-16.4968
		c2.7535-19.7872,10.4531-37.5106,20.4635-50.1881c3.3892,42.0265,12.5051,84.7335,27.2021,125.5443l39.7185-31.6741
		c-6.3818-23.5806-10.5281-47.8191-12.4697-72.1666c6.384,22.0614,10.9678,46.6261,15.3207,69.8937l6.6519-5.3047
		c-3.9359-41.5205-6.8956-90.6826-22.4484-126.1439c1.6227-26.5159,5.4641-52.6255,10.8025-77.9547
		c1.7173-10.4725,3.8137-20.884,6.1494-31.2242l0.0002-0.0001c-0.0001-0.0001-0.0001-0.0001-0.0001-0.0002v-0.0001h-0.0001
		c-6.5908-8.3027-12.9973-16.7732-19.0881-25.4637c-15.7997-20.5045-30.5892-42.3619-43.5562-65.5478
		c-1.3735-38.6977-20.0377-84.2751-34.5066-123.3916c30.0081-28.9648,66.599-61.9308,84.627-96.2003
		c21.7427-15.2635,44.5513-28.5394,67.6829-40.1581c9.2584-5.187,18.7058-10.0393,28.2463-14.6603l-53.0542-42.3092
		c-15.292,8.9412-30.6417,18.5371-45.6003,29.1577c-27.2192-33.1117-103.7842-42.4047-173.6431-19.7626
		c-95.025,27.311-147.8516,89.0909-156.1063,101.0792c-6.0947,8.2296-10.8562,15.8927-14.5152,22.9707h-0.0001
		c0.2256,7.9648,1.1907,16.9349,3.1111,26.9939c2.2357,14.3824,23.0255,92.9651,96.7903,158.8014
		c53.1167,50.7103,126.1313,75.5579,165.0217,57.5353c8.8691,16.059,18.5352,31.3647,28.4333,46.0554
		c-2.5441,17.5305-4.6121,35.5145-5.635,53.8313c-42.8586,0.6362-97.8617,54.7029-123.7158,123.4377
		c-37.8945,91.3219-22.5298,171.1427-18.3037,185.071c2.6343,9.8959,5.6566,18.3966,8.9089,25.6704l34.1104-27.202
		C1163.634,1245.2865,1159.2511,1232.3845,1156.2462,1217.1564z M1126.6899,593.0189c6.6398-1.481,14.4482-5.2568,19.1563-9.6673
		c5.3354-4.6453,7.1941-9.5742,4.3413-11.4294c2.3098-1.877,4.6134-3.7336,7.0369-5.5139
		c25.541-18.7512,57.7632-31.5176,83.3899-31.3152c13.1116,0.3381,23.4481,3.5652,30.8116,8.6245
		c-2.4398,2.1794-4.9208,4.3806-7.3336,6.6173c-17.2493-0.0956-37.3804,5.2323-56.0917,16.3776
		c-5.0123,2.9957-9.8807,6.426-14.5782,10.2066c-4.6594-0.1848-11.9824,2.9203-17.825,7.8699
		c-6.4729,5.7683-7.4689,10.9949-2.548,11.7119c4.8789,0.7015,13.4094-2.7205,19.2551-7.6393
		c5.7118-4.5427,7.3005-9.5938,3.6342-11.392c4.4031-3.508,8.9458-6.6699,13.5837-9.4255
		c17.187-10.1841,35.8445-15.2146,51.9973-15.2925c-30.7444,28.8525-58.4504,62.6069-81.1941,99.5426l-0.0002-0.0001
		c4.4655,43.146,14.7825,85.579,29.9635,124.9141c-14.5195-7.0786-29.1465-19.7061-40.2128-36.3389
		c-2.9829-4.4951-5.704-9.3147-8.1489-14.3858c4.0834-0.0292,4.8438-5.2696,1.6685-11.8405
		c-3.1326-6.9682-9.3336-13.7526-14.0336-15.2375c-4.7448-1.4891-6.1151,3.652-2.786,11.6576
		c3.1165,6.9944,8.3669,12.9692,12.6453,14.8245c2.5919,5.4442,5.49,10.647,8.7061,15.5211
		c12.0225,18.1599,27.8481,31.6947,43.4309,39.0928c1.2034,3.0621,2.4836,6.1216,3.7362,9.1439
		c-8.8295,1.3636-19.5426-0.2139-31.5023-5.5982c-23.1769-10.9365-46.6689-36.4193-61.5447-64.3954
		c-1.4111-2.6555-2.6809-5.3275-3.9478-8.021c3.3752-0.4338,3.8391-5.681,1.0475-12.1812
		c-2.3281-6.0165-7.725-12.8063-13.0648-17.0214c-5.1823-4.1537-7.2229,1.5701-3.5002,11.7469
		c3.3375,8.3965,9.0344,15.4594,13.287,17.1393c1.3104,2.8022,2.6251,5.5864,4.0917,8.363
		c15.4421,29.2129,40.1089,56.0446,64.7535,67.5472c12.0675,5.3796,22.8668,7.0521,31.8176,5.8766
		c1.0754,2.5527,2.1567,5.0939,3.2721,7.6246c-28.1453,4.694-68.0226-12.0501-103.0294-50.9135
		c-34.4807-33.91-56.2268-92.066-51.8669-123.8156h0.0001c9.8474-30.497,54.673-73.4585,100.4521-89.0497
		c48.4022-19.8258,91.5955-17.6096,114.9167-1.1686c-2.1028,1.7961-4.1797,3.6165-6.2563,5.4497
		c-7.5543-4.9427-18.0099-8.1216-31.2163-8.5106c-27.1949-0.3296-61.0608,13.1426-87.6486,32.7625
		c-2.5261,1.8652-4.9186,3.8033-7.3151,5.7594c-4.5603-0.3318-12.7576,3.5599-19.4075,9.677
		C1120.8635,588.4702,1120.2186,594.5125,1126.6899,593.0189z M1084.0957,757.2123
		c-44.9625-47.2198-53.5206-91.6544-55.7454-100.4062c-3.8998-15.0237-5.5488-28.5497-6.4758-40.6772
		c6.0972-10.5242,13.4514-21.9953,23.4836-33.8392c5.8018-6.9196,32.7917-43.2407,93.7894-66.2758
		c60.1398-24.6511,129.786-21.2139,152.6613,10.3201c-0.9709,0.7885-1.9307,1.5933-2.8973,2.3943
		c-22.1569-18.0544-67.0468-23.1628-122.7953-2.9688c-51.5468,19.2036-97.1475,65.8408-109.3707,98.3281h-0.0001
		c-3.0831,34.5735,17.7666,96.3776,55.8766,136.0449c41.4658,42.3826,84.1266,57.2571,111.923,50.6042
		c0.5229,1.1412,1.0387,2.2829,1.5715,3.4144C1191.8245,832.6375,1127.584,805.5158,1084.0957,757.2123z M1229.8536,663.5989
		c14.4572-19.6917,30.8221-38.0458,48.6475-54.7443c-13.2682,18.7459-29.6156,37.6453-45.0931,55.5555v0.0001
		c6.1735,22.8521,12.702,46.9727,16.5227,69.6189C1241.116,711.2502,1234.3352,687.6132,1229.8536,663.5989z"/>
	<path d="M1127.6764,971.5664c3.3507-4.4877,18.4545-26.2419,36.3057-50.9462l-11.1078,2.5352
		c-15.8655,19.7975-28.2329,35.8506-30.9822,39.4953c-8.5513,11.6718-14.1697,23.0247-13.2466,26.478
		C1109.6075,992.6482,1118.2488,984.6608,1127.6764,971.5664z"/>
	<path d="M1123.2603,951.3456c2.4391-2.284,12.3123-12.926,25.1964-27.182l-0.0001,0.0001
		c-17.7935-7.254-31.3063-12.5583-34.4946-13.5579c-12.5532-4.3925-19.58-3.6097-15.7615,0.9608
		c3.7545,4.486,13.9895,10.0475,24.543,13.5369c1.2953,0.3991,4.501,1.3831,9.1519,2.8403
		c-3.558,3.3306-6.0193,5.6082-7.0131,6.5298c-7.9948,7.7225-14.803,17.1743-16.2393,22.8451
		C1107.1858,963.0933,1113.8562,960.7498,1123.2603,951.3456z"/>
	<path d="M1116.8636,1022.0198c3.866,0.4875,8.1024-5.418,9.0033-8.5353c1.3461-7.4888,1.9724-9.5957,6.2473-20.5489
		c0.865-2.5665,5.2126-14.453,15.5673-32.5529c6.7122-11.6707,16.7355-26.9695,26.8533-42.1709l-9.339,2.1315
		c-9.5835,13.2295-18.7944,26.3246-26.958,39.3633c-12.2415,19.613-19.4993,36.5734-21.1443,41.6801
		C1113.5198,1011.1127,1112.6631,1021.6475,1116.8636,1022.0198z"/>
	<path d="M1124.8018,929.5628l0.0006-0.0001c-0.0001,0-0.0001,0-0.0004,0c0.0002-0.0001,0.0002-0.0001,0.0002-0.0001l-0.0005,0.0001
		c-5.223-0.3937-8.8167,0.2634-10.187,2.3251l4.2688-0.9742l-4.2689,0.9745
		C1116.7439,933.1509,1120.2668,932.1836,1124.8018,929.5628z"/>
	<path d="M1024.4189,758.3848c-26.4323-14.2484-46.0341-4.7109-46.9535-0.8956c-4.7168,5.1305-2.8246,14.3293,1.5067,17.9646
		c4.9319,4.2233,10.1527,2.7894,13.8743-0.7958c0.7985-2.7169,12.3276-14.7057,35.5996-6.4133
		c22.3621,6.9305,49.8335,26.0302,49.6488,26.0286C1078.2664,794.3611,1050.576,771.1045,1024.4189,758.3848z"/>
	<path d="M990.873,720.5886c-4.75-0.8994-6.2123,3.1044-3.2978,8.5907c2.9284,5.5,8.056,10.6008,11.2902,11.2506
		c0.2687-5.4525,51.0094,25.8802,52.4362,29.9112C1052.3948,768.327,996.5155,716.941,990.873,720.5886z"/>
	<path d="M985.9749,691.9311c-4.4594-1.9368-6.3024,1.354-4.1488,6.8647c2.1622,5.5217,5.9742,11.0151,8.3511,11.9783
		c0.2424-5.3509,40.3718,31.6523,40.6343,34.9745C1033.4918,745.8344,993.6092,691.1006,985.9749,691.9311z"/>
	<path d="M1449.4501,800.7209c14.8864,20.2318,33.2233,42.7527,61.1415,40.7879l16.4763-3.7607
		c8.9426-3.3662,18.7366-9.0704,29.5271-17.7361c38.8271-31.2155,49.3628-21.715,51.6827-18.0627
		c-3.9603-7.7333-28.4576-53.6449-56.0963-62.1453c-49.78-15.2061-90.334,15.3126-157.3298-11.2905
		C1404.2925,732.2996,1426.6709,769.7404,1449.4501,800.7209z"/>
	<path d="M1608.2777,801.9493c0.3671,0.7167,0.5724,1.1329,0.5724,1.1329S1608.6984,802.6115,1608.2777,801.9493z"/>
	<path d="M1393.0797,719.6898c0,0,57.2101,20.1915,91.4171,2.0297c-22.9395-31.2052-83.2446-37.8357-83.2446-37.8357
		c3.1,2.9882,4.1643,10.124,4.6018,19.886C1401.2241,712.3752,1397.1692,718.3425,1393.0797,719.6898z"/>
	<path d="M1152.8744,923.1553l11.1077-2.5352c-26.8021-14.5125-49.849-27.559-54.8149-30.1486
		c-14.1754-7.7073-25.4265-11.1545-24.7664-7.566c0.6669,3.5117,10.6547,11.3024,23.4232,18.1083
		C1111.8823,903.1052,1129.9902,912.2021,1152.8744,923.1553z"/>
	<path d="M1132.0435,891.8681c-17.1824-11.8151-26.2568-20.6378-28.1497-22.575c-8.6039-8.0138-10.0826-9.6402-14.5446-15.8034
		c-2.1642-2.4175-8.5435-5.9001-11.8151-3.7835c-3.6233,2.1581,1.7197,11.2778,9.1594,18.49
		c3.698,3.8871,17.5958,16.0189,37.1348,28.3783c13.0126,8.2054,26.9929,16.0071,41.3674,23.7686l9.339-2.1315
		C1158.8234,908.9056,1143.1547,899.4706,1132.0435,891.8681z"/>
</g>
</svg>
