<?xml version="1.0" encoding="UTF-8" standalone="no"?>
<svg xmlns:rdf="http://www.w3.org/1999/02/22-rdf-syntax-ns#" xmlns="http://www.w3.org/2000/svg" height="1717pt" width="1043pt" version="1.1" xmlns:cc="http://creativecommons.org/ns#" xmlns:dc="http://purl.org/dc/elements/1.1/" viewBox="0 0 1043 1717">
<path d="m674.41 10.662c-79.77 1.675-159.3 6.414-238.45 16.639-32.1-0.05-63.86 6.211-93.56 17.461-7.91 16.925-5.44 36.662-10.84 54.375-2.3 7.563 6.82 5.623 11.49 7.563 3.55 5.91 6.2 13.09 14.38 9.87 23.48 6.63 45.51 18.2 68.73 26 41.88 25.38 79.45 62.39 95.37 109.72 6.15 32.86 11.54 66.61 2.86 99.62-1.57 43.24-27.35 79.5-44.77 117.66-17.86 19.23-34.54 39.67-52.37 58.93-20.89 16.36-42.45 32.05-64.6 46.69-37.16 23.87-90.95 26.11-113.25 68.49-3.86 0.26-13.54 0.49-11.51-5.89 5.11-12.93-4.6-24.74-9.71-36.09-14.27-3.21-27.72-10.65-37.97-20.86-2.16-9.9-5.16-19.61-7.41-29.48 12.95-31.75 50.54-51.72 47.73-89.36-7.38-18.25-14.13-36.82-21.57-55.04-0.52-24.75-1.57-49.89 3.89-74.24 17.99 1.04 40.29 14.19 52.34-6.46 3.99-12.22-2.69-39.17 18.27-39.95 13.28-9.37 1.08-29.01 0.48-42.06 12.41-17.87 6.56-41.44 20.53-58.6 4.94-23.31-8.3-48.61-33.12-54.49-25.83-7.24-48.81-26.05-76.81-23.04-22.2 0.22-46.51-10.52-66.39 3.85-31.175 3.88-26.39 40.71-43.162 59.28-16.362 18.91-15.413 44.76-22.338 67.65-4.475 19.35-16.4 37.84-12.738 58.28-34.937 148.35-43.224 302.87-42.361 455.22-6.2627 87.13 16.111 172.82 18.986 259.7 4.6 42 0.925 85.2 12.588 126.3 8.875 45.3 19.763 90.2 23.713 136.2 43.302 155 95.552 308 161.4 454.9 15.07 37 35.55 71.5 54.96 106.3 17.04 23.6 33.53 47.7 45.83 74.2 22.06 41.3 51.68 78 78.69 116.2 7.9 8.7 12.42 27-3.92 29.9-25.02 9.1-15.69 47.5 9.01 48.8 26.21 11.7 54.39 16.4 82.94 18.3 104.11 19 210.4 9.8 315.28 4 35.28-9.5 75.01-11.5 104.08-36.3 2.63-10.7 1.78-22.6 0.74-33.3-8.9-11-43.49-17.7-25.07-34.6 26.63-36.4 48-76.6 73.68-113.8 31.44-48.9 48.54-105.6 78.94-154.9 27.3-64.2 53.6-128.9 80.3-193.4 11.9-29.7 25.9-58.8 33.7-90 40-120.8 70.3-244.7 89.5-370.5 23.4-124.26 50.2-248.7 54.7-375.37-0.6-83.05 0.8-166.18-0.7-249.19-10.3-46.25-10.8-94.12-21.1-140.39-10.6-45.56-15.5-92.66-32.1-136.65-6.8-16.12-6.5-36.41-21.1-48.1 0.8-19.48-17.1-30.94-28.6-44.09-25.1-2.97-49.5-15.748-75.2-9.26-42.2 1.3-88 28.33-97.4 71.59-6.5 14.81 9.7 31.38-2.1 45.6-3 21.8-6.9 43.58-10.3 65.35-1.5 17.1 25.1 2.2 28.3 15.97 2.2 13.98-3.4 29.66 3 42.8 15.2 3.86 31.8 1.24 47.5 2.77 15.3 25.36 10.8 57.09 15.3 85.38-8.2 25.61-18.7 50.44-28.9 75.28-8.9 34.49 41 47.72 36.2 81.85 2.8 21.22-1.9 42.27-9.6 61.97-21.2 2.14-34.5-16.67-51.9-24.81-54.26-29.15-111.98-52.42-161.43-89.82-32.91-16.09-48.45-50.82-70.81-77.92-18.95-18.27-18.28-46.41-26.28-69.92-13.13-33.16 0.38-69.25 0.68-103.76-3.21-20.29 11.15-36.15 16.7-54.4 8.59-23.7 31.73-36.77 45.95-56.54 29.45-30.78 71.75-40.38 108.5-58.52 4.6 4.42 15.7 3.89 15.48-3.9 2.16-20.383 5.61-42.558-3.75-61.595-19.78-8.488-41.13-13.45-62.82-14.575-78.82-7.187-157.58-18.7-236.71-19.488zm14.18 12.826c89.52 6.013 180.31 9.749 268.57 27.862 16.8 10.412 8.85 30.388 11.48 46.238-205.72-33.988-415.47-19.039-622.17-2.514 1.29-12.637 1.92-25.462 4.24-37.949 16.98-7 34.39-13.863 52.98-14.687 59.51-4.438 118.62-12.901 178.09-17.989 35.51-0.487 71.53 2.902 106.81-0.961zm-27.81 66.024c82.23 0.562 164.66 3.3 246.43 13.178 6.27 1.42 13.04 2.83 18.08 7.13-23.38 14.83-52.34 21.72-70.6 43.62-15.54 16.17-33.47 29.81-48.75 46.22-32.43-8.54-65.58-13.2-99.2-11.37-66.55-4.55-133.21 0.26-198.84 11.59-23.1-30.69-51.2-60.58-88.44-73.1-16.33-6-32.32-12.9-48.4-19.57 95.79-11.372 193.13-13.998 289.72-17.698zm467.82 17.418c15.3 0.39 30 6.64 45.2 8.03 20.7 0.54 39.7 22.35 34.4 42.65-53.3 18.43-107.7 39.72-164.5 41.6-15.7-9.13-8.5-29.07-5.8-43.43 19.9-28.83 53.6-43.49 87.7-48.84 1-0.03 2-0.03 3-0.01zm-977.63 9.93c23.65-0.33 47.29 5.04 70.84 7.38 19.37 8.11 38.73 16.36 58.04 24.55 8.64 8.23 17.21 23.98 11.39 34.66-57.86-13.94-116.83-25.59-176.27-30.75-8.92-2.3-4.01-14.69 2.09-18.13 7.84-11.37 21.46-14.26 33.91-17.71zm-43.09 51.15c29.82 6.15 63.39-2.61 90.66 13.37-13.28 50.98-30.75 101.18-35.6 153.94-4.95 25.52-31.44 36.42-55.13 33.49 10.27-44.11 19.64-88.52 29.43-132.78 2.19-4.72-10.97-10.92-8.77-2.33-16.76 55.67-23.34 114.84-48.257 167.64-3.113 25.17 38.837 28.6 30.187 52.51-15.062 6.54-30.638 15.64-47.701 12.34 9.088-55.11 19.588-110.03 29.901-164.91 2.925-5.24-1.025-10.08-5.6-12.48-17.162 66.86-31.875 134.34-39.463 203.01 14.45 14.41 36.051 12.49 52.363 22.29-3.462 20.45-26.913 25.69-41.138 37.18-12.263 4.62-20.786 19.27-34.774 18.51 5.025-61.89 7.013-124.39 19.125-185.4 16.4-61.82 22.211-126.43 43.024-187.01 4.025-11.8 8.975-24.69 21.743-29.37zm1099.9 5.4c7.6 1.58 14.4 4.17 18 11.95 34.6 93.27 41.9 193.78 55.8 291.7 3.8 18.98 3.9 38.4 3.3 57.66-13.1 2.95-19.3-14.08-32.6-9.66-13.4-1.17-41.4-0.27-40.8-19.32 10.3-10.55 25.1-16.43 34.6-27.95 0.2-66.15-0.2-133.02-15.8-197.57 0.3-7.37-14.5-10.61-10.4 0.06-3.8 16.25 6.2 30 6.6 45.77 2.1 41.71 6.9 83.26 8.5 125.01-20.5-5.05-42.7-10.05-60.2-22.36 12.2-12.83 32.8-17.4 39.8-34.9 5.3-15.7-8.3-27.15-8.8-42.12-3.3-28.24-9.4-56.06-15.8-83.71-3-9.52-16.5-4.37-13.6 4.44 5.3 29.13 11.4 58.24 16 87.47-10.8-1.08-21.1-5.32-31.8-7.02-5.4-51.25-1.2-105.07-24.3-152.62 21.4-14.79 47.8-17.39 71.5-26.83zm-994.92 7.81c22.98 3.83 45.8 8.88 68.4 14.6 0.11 9.19 0.46 18.41-0.09 27.58-14.93 4.01-34.04-0.78-46.28 9.6 4.06 10.94 25.69 1.15 34.74 7.22 2.65 10.09 6.64 20.04 7.59 30.49-6.11 6.63-14.43 11.15-19.93 18.3-2.47 13.44-0.52 31.69-15.17 38.46-22.87-7.52-53.23-15.26-56.33-43.23 8.4-34.35 13.84-70.13 27.07-103.02zm450.62 17.33c3.36 0.01 6.73 0.09 10.09 0.26-2.61 67.47-6.75 134.85-9.64 202.31 2.52 23.53 6.34 46.92 9.58 70.33-9.84-0.16-19.73 0.49-29.52-0.48-7.4-88.18-5.65-183.77 2.71-271.83 5.57-0.39 11.18-0.6 16.78-0.59zm52.3 1.02c-4.95 26.55-11.99 52.77-15.68 79.5 2.88 50.44-2.12 101.73 10.94 151.13 0.64 14.97 8.48 28.44 8.88 43.33-9.35-0.94-18.92-0.34-28.06-0.53-4.23-22.22-13.42-43.7-12.02-66.74 1.54-59.84 1.96-119.71 2.99-179.52 3.15-8.34 4.11-19.42 7.89-26.36 8.34-0.57 16.7-0.78 25.06-0.81zm-110.23 0.72c8.43-0.05 16.87 1.67 25.19 2.86-3.35 89.26-3.68 178.66-3.38 268.03-12.8 0.25-25.6 0.22-38.39 0.16 15.3-78.98 13.53-159.57 17.08-239.58 0.19-9.15-13.18-26.47-0.5-31.47zm510.83 2.18c2.2 0.07 3.8 1.39 4.7 3.94 26.5 48.6 20.9 106.3 28.4 159.45-11.2 6.14-23.8 11.86-36.6 14.14-4.4-13.88-8.7-28.14-12.6-42.31 19.8-5.71 26.2-26.48 37.1-41.7 5.2-4.61 1.8-12.09-4.6-12.15-12.6 10.36-16.2 29.27-32.9 34.77-13.6 10.52-31.2 5.25-46.5 10.14-0.9-21.05 3.6-52.81-26.5-53.61-10.4-27.99 29.5-28.04 45.4-28.98 7.3-20.9-28.4-12.12-39.1-10.8 0.2-7.47 0-14.97 0.8-22.41 26.4-2.96 53-3.89 79-9.81 1.2-0.48 2.4-0.71 3.4-0.67zm-383.66 0.13c9.71 1.42 20.4-0.32 29.69 2.21-30.69 82.44-31.24 177.23 6.17 257.73 10.35 18.85-22.45 5.51-32.42 12.2-20.37-76.04-23.92-155.44-19.19-233.75 4.77-12.95 10.44-25.75 15.75-38.39zm-150.85 1.19c1.27-0.02 2.52 0.13 3.67 0.66 12.72 61.19 4.34 124.4 1.3 186.2-5.43 27.53-1.37 57.74-15.21 83.09-12.62-0.11-25.51 1.07-38-0.88 14.53-43.73 37.99-86.59 35.14-133.95-1.64-43.97 6.07-90.8-14.73-131.23 7.13-1.52 14.38-2.4 21.62-3.32 1.92-0.01 4.1-0.53 6.21-0.57zm-46.23 3.83c3.01-0.19 3.54 4.65 4.77 7.07 5.05 17.76 13.79 34.57 16.46 52.96-2.03 39.59 1.31 79.76-6.63 118.85-6.19 23.92-17.51 46.14-23.45 70.16-4.56 15.3-22.95 27.59-37.97 18.44 17.32-37.6 41.27-73.3 45.95-115.35 9.12-29.66 0.77-60.45 2.71-90.72 0.48-20.79-15.48-36.77-19.86-56.21 5.31-2.25 10.96-3.54 16.57-4.79 0.54-0.26 1.02-0.39 1.45-0.41zm245.98 0.12c5.62 1.5 19.32-1.18 14.14 8.1-23.84 53.66-28.5 113.36-20.04 170.95 11.75 29.07 16.04 62.19 38.29 85.83-8.32 1.14-17.34 0.79-25.49 0.03-10.37-28.57-23.09-56.31-30.88-85.8-6.81-59.74-12.94-127.57 23.98-179.11zm-599.1 99.95c7.25 6.09 12.92 14.79 18.53 22.49-3.77 13.27-7.93 26.6-7.81 40.63-8.41 0.18-17.48 0.68-25.3-3.03-0.82-21.07 14.04-38.9 14.58-60.09zm985.26 60.01c15.1 1.01 28.6 8.47 30.8 24.5-11.2 13.7-46.3 22.06-37.5 45.15 16.3 10.6 35.1 17.65 54 22.43 7.7 1.82 16.1 8.13 11.7 16.63-8.5 8.89-19.9 14.9-28.6 23.45-9.6 20.97 13.2 37.47 32 37.17 18.1 4.13 39.3 0.97 54 14.31 2.8 122.22 3.5 246.81-20.2 367.63-8.5-27.9-11.9-57.73-23.2-84.75-6.2-10.9-34.9-19.13-25-31.32-16.6-24.87-25.4-55.25-48.2-75.54-18-26.1-52.2-42.35-57.3-76.02 7.7-26.7 20.6-53.8 11.9-82.09-11.4-19.36-30.7-36.96-35.1-58.47 12.9-38.34 29.9-76.16 28.5-117.47 18.5-6.39 41.2-8.76 52.2-25.61zm-1026.4 8.74c12.38-0.16 24.05 6.13 36.26 8.1 5.6 1.53 14.31 1.28 15.5 8.6 8.51 22.87 11.36 48.32 25.12 68.86 1.69 35.35-33.86 55.15-46.86 84.21 3.86 18.97-1.16 46.08 22 54.14 20.21 4.94 39.66 17.88 34.84 41.93-44.19 2.26-81.56 32.94-104.55 68.94-13.2 30.62-34.14 58.67-36.465 92.97-17.863 9.05-30.062 24.33-40.799 40.88-14.9 14.02-10.252 36.69-19.539 53.32-2-40.38-8.925-80.35-10-120.77 1.137-61.32 2.401-122.68 4.951-183.93 22.162-16.43 43.511-34.3 69.236-45.03 10.126-11.72 28.036-25.62 18.676-43.22-13.125-10.46-30.012-13.43-46.387-14.74-0.975-2.41-2.801-5.35-1.726-7.9 20.787-7.9 50.103-4.05 63.713-25.08 0.05-11.32 3.74-28.27-10.41-32.78-8.02-5.8-25.652-9.67-19.702-23.37 4.313-18.9 25.242-20.88 40.792-24.64 1.8-0.32 3.58-0.47 5.35-0.49zm521.23 106.26c34.88 2.36 70.03 3.06 104.7 7.6-10.46 47.88-26.08 95.79-36.51 143.09-25-29.07-37.36-70.63-54.08-106.36-5.37-14.52-14.83-28.26-14.11-44.33zm-17.72 1.99c-16.83 31.31-30.12 64.77-52.32 92.88-14.5 20.23-22.57 46.61-43.77 60.89-2.25-31.65-15.83-62.32-11.01-94.36 1.97-18.14 1.77-36.45 3.87-54.57 4.56-1.9 9.45-3.11 14.33-3.93 29.59-1.59 59.27 0.11 88.9-0.91zm142.79 2.93c14.61 1.28 29.06 4.21 43.58 6.22-4.66 4.72-16.44 2.95-19.81 11.73 0.24 9.12 1.35 18.3 2.96 27.28 14.14 5.67 34.14 18.69 45.66 2.08 14.39 8.77 12.29 27.73 18.67 41.38 2.64 18.1 14.67 32.63 20.01 49.66-47.66-34.96-88.27-83.45-111.07-138.35zm-271.75 1.92c2.85-0.09 4.61 0.74 2.77 4.21-10.48 18.46-21.79 36.7-37.27 51.43-28.44 27.31-52.27 60.22-86.23 81.29 10.39-26.65 20.29-53.5 31.31-79.87 3.59-6.26 10.24-9.95 16-14.06 5.24 12.06 20.03 11.52 30.99 13.55 17.09-10.31 21.4-37.64 6.09-51.52 8.36-1.37 16.76-2.71 25.16-3.88 2.01 0.57 7.5-1.05 11.18-1.15zm61.16 7.5c-2.65 0.04-5.4 0.43-8.21 1.18-16.56 1.75-9.34 21.98-12.58 33.47 4.58 8.33 13.35 14.66 22.24 17.86 12.81-7.12 28.4-17.4 24.27-34.41-4.64-11.89-14.24-18.28-25.72-18.1zm130.66 3.32c-1.03-0.03-2.04-0.03-3.01 0-13.54 8.08-16.56 31.23-5.21 41.78 9.62 2.3 18.35 7.14 27.72 10.04 5.95-7.07 14.61-14.39 12.9-24.62 4.47-19.16-16.88-26.76-32.4-27.2zm-242.37 7.19c10.72 1.69 11.36 25.89-3.52 19.94 0.8-8.18-7-14.93 3.52-19.94zm185.52 1.75c2.19-0.04 3.05 2.67 4.06 4.42 21.7 45.97 44.6 91.49 64.89 138.07-52.01 0.15-103.94-3.84-155.92-2.68 26.02-47.1 57.62-91.76 84.27-138.72 1.08-0.76 1.96-1.08 2.7-1.09zm-73.15 1.11c17.69 2.64 14.01 25.79-5.1 22.05-0.57-4.38-5.55-22.31 5.1-22.05zm260.58 0.83c6.47 0.02 11.71 6.48 15.73 11.08-6.64 8.38-24.86 9.12-27-3.31-3.04-4.97 4.05-6.22 7.55-7.07 1.28-0.49 2.52-0.71 3.72-0.7zm-122.25 1.61c12.53 0.66 16.73 25.42 0.7 21.66-15.13 3.83-16.42-20.8-1.94-21.65 0.42-0.03 0.83-0.03 1.24-0.01zm60.74 0.53c15.98 18.04 31.58 43.62 47.87 64.42 24.51 24.3 52.05 45.74 75.35 71.21-28.95 0-58.6 8.06-87.11 0.44-24.67-1.31-49.43 6.37-74.17 1.9 10.38-21.13 15.11-44.16 17.46-67.57 6.17-23.67 13.35-47.06 20.6-70.4zm-254.91 4.55c3.76 40.52 4.37 87.7 10.47 130.6-43.63 1.6-87.17-2.24-130.79-0.91 33.74-47.13 85.93-81.72 120.32-129.69zm363.12 28.31c48.16 40.14 110.58 55.32 162.47 89.22-39.3 6.55-84.19 7.9-125.65 11.5-12.23-33.66-30.32-65.26-36.82-100.72zm-481.99 15.61c-8.12 25.26-20.08 55.85-31.66 82.47-35.34 0.5-70.84-3.32-106.27-1.7 3.69-9.87 13.49-17.73 23.25-21.76 40.48-15.62 80.03-32.49 114.68-59.01zm640.16 88.71c19.8 2.68 43.7 2.72 58.2 18.37-90.4 10.23-181.5 4.25-272.18 7.75-213.23 2.86-426.88 8.97-639.77-7.14 9.11-6.24 20.75-8.66 31.23-11.85 67.53 3 135.27-1.13 202.82 2.53 149.41 8.19 299.16 3.79 448.76 4.58 56.95-4.51 114.51-4.36 170.94-14.24zm-868.65 29.65c21.13 1.49 42.06 5.59 63.35 5.18-14.6 13.3-29.55 26.52-44.33 39.49-9.11-9.77-14.04-25.42-22.23-37.14-2.66-2.88 1.17-5.64 3.21-7.53zm895.35 5.65c6.6 0.65 13.3 1.26 19.8 3.03-2.1 11.33-6.5 22.51-11.9 32.65-9.2-10.5-17.6-21.13-28-30.4 6.6-2.09 13.4-3.93 20.1-5.28zm-118.46 2.4c20.96 0.96 41.95 0.03 62.96 0.68-0.8 9.16 2.9 7.39 7.3 3.59-10.4 15.45-16.2 34.68-30.21 47.28-12.51-17.77-29.07-33.24-40.05-51.55zm-28.23 0.52c-5.01 18.86-16.37 37.38-30.52 51.22-13.37-16.29-28.89-30.88-41.47-47.74 13.33-1.14 26.73-1.25 40.03-2.71 10.65-0.3 21.31-0.37 31.96-0.77zm183.09 1.36c21.8 11.97 37.6 32.31 54.6 49.9-7.2 16.3-12.2 35.36-22.3 49.53-16.8-16.5-33.7-35.32-49.4-53.75 3.4-15.88 12.5-30.06 17.1-45.68zm-838.24 0.12c27.53 1.26 55.13 1.55 82.66 1.53-14.81 17.48-30.45 35.65-48.33 50.41-11.38-17.31-25.87-32.88-34.33-51.94zm517.2 0.83c11.97 0.06 23.93 0.48 35.86 1.34-12.77 17.51-26.56 34.55-38.74 52.6-16.12-16.22-29.43-35.07-44.85-51.96 3.9-0.48 7.89-0.87 11.85-1.14 11.94-0.6 23.91-0.9 35.88-0.84zm-629.32 1.33c5.54 0.05 6.6 8.22 9.31 12.37 4.31 10.92 12.2 20.64 14.51 32.17-25.11 22.14-50.14 44.43-76.12 65.53 3.5-40.99 21.82-79.69 49.64-109.55 0.99-0.36 1.87-0.52 2.66-0.52zm391.85 0.41c12.22-0.13 24.54 0.46 36.18 4.23-14.65 14.69-30.78 28.25-42.75 45.35-11.87-15.47-28.06-28.86-34.6-47.62 9.69-0.28 19.34-1.09 29.02-1.68 4.02-0.11 8.08-0.23 12.15-0.28zm129.21 0.01c11.17 0.06 22.35 0.76 33.18 3.28-12.18 16.34-25.11 32.13-36.64 48.94-18.57-13.68-31.35-33.96-49.75-47.99 8.5-4.67 22.51-1.98 33.17-3.91 6.63-0.17 13.33-0.36 20.04-0.32zm-295 0.13c29.98 0.34 60 1.74 89.99 1.32-14.26 18.88-34.35 33.51-50.79 50.83-14.55-15.48-30.01-35.86-39.2-52.15zm-131.66 2.71c14.01 17.4 29.65 37.64 41.77 57.82-20.9 16.69-37.06 39.28-58.17 55.31-10.36-19.45-19.26-39.66-30.35-58.74-1.46-3.31-5.33-7.43-2.16-10.97 12.76-17.89 31.85-30.05 48.91-43.42zm785.96 1.98c11.3 16.29 36.1 28.6 32.6 51.29-8.4 16.14-15.3 33.26-25 48.61-14-14.4-26.3-30.4-39.9-45.2 10.2-18.55 21.5-36.57 32.3-54.7zm-99.39 0.52c15.14 15.98 33.33 35.81 47.71 54.7-6.77 19.84-21.42 36.71-32.16 54.69-15.81-19.81-34.17-37.82-49.82-57.52 10.28-17.99 22.97-34.51 34.27-51.87zm-336.48 2.28c20.25 16.72 43.53 35.89 60.69 57.1-17.56 20.4-35.97 40.99-54.94 59.69-18.99-20.07-39.32-41.37-57-63.26 18.01-16.95 34.37-35.55 51.25-53.53zm-234.62 0.4c14.93 14.44 29.14 37.93 42.87 56.59-18.38 19.56-34.44 43.36-59.64 54.71-15.32-16.97-26.53-37.32-37.84-57.04 19.12-17.1 34.76-37.89 54.61-54.26zm466.78 0.68c22.67 10.32 37.78 31.23 49.73 52-13.28 17.86-26.26 36.21-40.52 53.39-2.42 4.15-6.76-0.62-8.12-3.03-13.72-16.65-28.98-32-42.38-48.89 13.91-17.7 27.93-35.35 41.29-53.47zm-345.25 1.49c13.64 15.15 27.35 34.46 40.1 52.04-18.64 20.38-39.55 39.97-60.03 58.38-13.07-13.95-22-33.5-34.59-48.84-1.67-2.68-6.67-7.16-1.97-9.82 19-17.07 37.19-35.05 56.49-51.76zm234.95 2.53c14.25 1.32 20.23 20.88 31.03 29.84 4.29 8.3 17.13 14.28 17.08 23.72-14.34 17.96-27.97 37.52-42.94 54.41-15.77-16.29-29-36.64-44.84-53.6 13.76-17.72 25.37-37.14 39.67-54.37zm-534.48 42.59c8 21.08 26.53 42.59 29.72 66.55-32.52-2.91-66.25-1.61-98.03-6.89 23.46-19.03 46.1-39.23 68.31-59.66zm892.89 6.26c9.1 4.33 15.7 17.41 24.6 23.91 7.2 10.63 23 16.96 24.4 30.58-25.5-1.45-50.7 3.28-76.1 2.04 9.5-18.58 18.9-37.6 27.1-56.53zm91 2.47c7.6 7.9 14 24.43 21.8 34.73 2.3 3.84 7.8 13.64-2 11.65-14.2 1.25-28.3 4.1-42.5 5.5 4.3-18.5 13.6-35.38 22.7-51.88zm-279.04 5.74c16.05 17.82 31.57 36.14 47.27 54.28-30.62 2.94-61.93 1.79-92.74 2.84 16.47-17.9 29.82-38.49 45.47-57.12zm101.59 0.7c13.95 13.29 27.05 33.81 40.65 49.83-22.7 3.71-45.79 1.91-68.6 4.26 8.19-18.26 18.1-36.44 27.95-54.09zm-697.79 2.12c11.28 15.56 28.28 32.27 32.05 51.92-25.45-1.46-53.01-0.55-77.04-3.41 14.03-16.11 28.97-33.46 44.99-48.51zm240.28 0.01c17.49 16.96 34.76 39.33 49.51 60.1-36.35-1.64-72.95 0.61-109.18-1.09 20.27-19.28 39.41-39.75 59.67-59.01zm244.67 2.11c12.9 17.33 28.79 33.65 40.64 51.45-24.89 3.66-55.32 7.48-80.59 2.79 14.14-17.45 26.53-36.25 39.95-54.24zm-109.06 2.9c12.59 15.57 30.15 33.99 38.69 53.2-26.1 3.59-58.14-5.49-84.94 0.1 10.56-21.16 29.54-37.02 46.25-53.3zm-257.91 0.05c17.41 10.45 28.92 34.03 37.44 52.61-28.49-1.63-57.13 1.14-85.47-2.87 14.9-17.53 32.77-32.48 48.03-49.74zm-321.56 48.65c22.085 7.36 46.985 4.75 70.365 6.28 290.11 16.34 581.16 16.21 871.46 2.84 57.1-6.09 114.7-4.74 172.1-4.24 3.4 2.15 11.5 6.21 9.7 10.65-52.1 4.33-104 10.67-156.4 7.76-59.5 4.91-119.06 9.04-178.8 6.29-249.42 10.39-499.48 12.02-748.39-10.44-18.91-2.79-38.922-0.72-56.972-8 5-4.54 10.362-9.11 16.937-11.14zm-29.475 24.77c87.75 12 176.5 15.28 264.95 20.19 74.41 2 148.79 8.83 223.27 5 151.68-7.53 303.63-2.43 455.38-8.26 75-11.06 151.6-10.04 226.8-7.35 11.8 33.54 15.4 71.58 20 107.38-1.9 11-18.5 9.52-26.5 10.32-33.5-1.25-66.2 8.74-99.7 7.6-225.05-0.15-450.09-0.01-675.11-0.07-69.75 1.92-138.83-10.36-208.55-10.09-70.02-3.29-139.96-8.6-210-10.08 2.648-26.46 8.522-52.38 13.872-78.37-0.162-13.73 6.426-26.59 15.588-36.27zm45.12 31.61c-2.23-0.01-4.63 0.29-7.18 0.92-6.24 9.54-20.652 16.28-17.815 29.63-3.4 15.67 13.188 23.32 20.335 34.79 6.23-2.12 12.33-4.68 18.4-7.22 16.55-15.87 12.6-58.01-13.74-58.12zm1069.3 5.06c-27.6 8.99-30.3 69.87 5.2 67.94 23.4-15.42 21.6-56.63-5.2-67.94zm-971.73 2.07c-1.05 0.02-2.12 0.09-3.21 0.22-29.61 14.8-18.62 75.29 19.64 65.41 28.65-14.57 16.06-66.17-16.43-65.63zm884.23 3.22c-2.1 0.01-4.3 0.26-6.7 0.8-24.3 9.13-27.7 46.41-6.7 60.78 10.6 4.19 25.1-0.46 32-8.76 7.7-18.56 5.8-52.91-18.6-52.82zm-765.8 1.85c-22.26-0.44-26.85 28.55-21.85 45.9 5.81 8.66 15.38 13.33 25.15 16.06 29.95-3.21 29.25-58.52 1.39-61.46-1.65-0.3-3.21-0.47-4.69-0.5zm-213.99 0.07c9.75 7.84 12.89 30.89-0.39 38.18-22.408-0.74-13.433-30.57 0.39-38.18zm365.99 5.24c-1-0.01-2.02 0.05-3.07 0.16-27.18 12.02-23.46 61.02 7.73 65.32 28.46-8.43 26.15-65.31-4.66-65.48zm489.14 0.62c-1.95 0.04-3.9 0.25-5.82 0.63-32.32 12.14-22.66 78.51 17.59 63.9 9.21-11.56 8.54-27.69 13.39-41.11 1.82-15.73-11.54-23.71-25.16-23.42zm-163.97 0.26c-1.52 0.02-3.12 0.14-4.81 0.38-37.03 8.64-19.4 70.74 16.74 61.22 13.9-18.3 18.86-61.94-11.93-61.6zm-162.45 1.09c-1.6 0.01-3.26 0.14-5 0.41-24.77 13.46-15.78 64.07 14.06 62.72 29.22-11.94 23.52-63.28-9.06-63.13zm-427.24 2.51c16.13-0.2 18.32 31.19 6.37 38.65-5.6-1.45-11.3-3.18-16.24-6.24 1.53-9.86-9.42-29.67 6.46-31.93 1.2-0.31 2.34-0.46 3.41-0.48zm965.82 0.35c10.1 7 13.1 27.71 1.7 37.78-13.4-4.79-17.8-31.55-1.7-37.78zm-89.8 1.05c18.1-0.84 12.8 32.41 4.1 36.64-20.7-1.76-21.3-26.93-4.1-36.64zm-762.34 1.59c15.07-0.35 10.95 19.42 10.25 31.1-9.42 4.38-26.86 1.67-24.7-12.11-3.16-9.57 6.25-14.7 12.93-18.9 0.52-0.05 1.03-0.08 1.52-0.09zm151.02 5.97c17.4 3.39 18.06 44.56-4.44 34.17-7.15-9.99-5.44-26.32 4.44-34.17zm490.54 0.05c21.15-0.56 6.38 27.86 2.88 39.07-22.19 6.73-24.34-35.2-5.04-38.92 0.76-0.08 1.48-0.13 2.16-0.15zm-164.68 2.28c12.94 0.04 7.55 27.88 2.95 36.89-16.71-0.73-29.7-33.91-5.79-36.51 1.03-0.26 1.97-0.38 2.84-0.38zm-159.03 0.43c13.5 0.31 6.78 21.87 7.34 33.75-19.11 5.46-25.96-19.45-14.44-32.49 2.83-0.91 5.18-1.3 7.1-1.26zm-571.95 63.28c6.902-0.09 13.754 1.5 20.401 3.37 4.637 66.8 8.327 133.8 22.717 199.5 9.9 101.4 41.58 198.4 65.46 296.9 19.82 56.6 42.23 112.4 56.9 170.7 14.1 35.2 13.86 73.7 23.64 110.1 1.65 12.7 8.82 25.8 5.91 38.4-22.34-47.9-48.75-94.1-64.54-144.8-24.94-67.8-51.26-135.1-77.61-202.4-38.365-98.7-51.902-204.2-72.514-307.5-12.075-53-12.239-107.6-15.414-161.54 9.4-0.44 18.801-0.84 28.138-2.04 2.307-0.45 4.612-0.66 6.912-0.69zm34.848 2.66c25.64 0.21 51.3 1.9 76.81 4.16 7.03 108.95 15.2 218.05 35.84 325.35 0.46 22 11.36 41.1 17.13 61.7 13.85 71.8 26.91 143.8 39.05 215.9 3.99 29.8 19.16 57.2 21.17 87.5 3.99 34.3 9.5 72.9 12.85 104.8-44.39-103.2-88.9-207-118-315.8-9.36-37.3-23.82-73-32.14-110.5-17.24-86.3-30.84-173.4-46.06-260.1-3.51-37.6-5.22-75.4-6.65-113.01zm93.89 3.86c33.46 1.58 66.94 4.14 100.46 5.16 1.93 56.69 4.04 113.39 5.99 170.19 9.34 69.8 19.25 139.7 23.79 210 11.18 65.7 22.9 131.2 35.45 196.6 3.92 30.4 19.32 58.2 19.81 89.2 9.6 59.2 8.64 119.4 20.35 178.3-27.32-45.2-53.49-95-79.8-142.4-12.95-29.7-29.18-59-33.13-91.8-22.38-110.9-45.31-221.7-67.38-332.6-11.8-73-17.55-146.8-26.24-220.1-3.21-20.8-0.71-41.76 0.7-62.55zm115.77 5.04c50.03 4.82 100.55 6.1 150.37 11.65-3.09 188.96-6.74 379.06 17.31 566.96-1.27 102.6-0.62 209.3-12.07 309.5-20.83-60.4-40.46-121.2-61.08-181.6-8.56-40.5-20.44-80.2-31.11-120.1-14.04-86.8-30.24-173.3-42.03-260.5-7.27-108.6-24.3-216.7-21.39-325.91zm901.13 0.19c12.2-0.12 24.4 2.4 36.6 2.79-21.4 113.43-44.3 226.83-68.2 339.83-17.3 47.2-23.2 98.1-44.8 143.8-33.1 85.4-63 173-104.8 254.2 6.8-35.7 14.3-71.2 20.7-107 6.9-46.2 27.1-89 38.4-134.1 21.1-94.3 40.5-189 61.7-283.2 12-67.2 21.2-134.8 28.6-202.54-1.2-14.88 16.8-10.75 26.6-13.56 1.7-0.14 3.5-0.21 5.2-0.22zm-493.25 4.6c22.7-0.08 45.39 2.72 68.1 2.98 16.95 138.24-14.42 276.44-16.52 414.84-9.54 36-3.79 73.5-5.97 110.4-2.55 40.9-5.09 81.8-7.17 122.7-11.92 38.5-19.21 78.3-32.59 116.3-22.17 44.4-35.54 94-59.89 136.6-13.72-76.9-28.79-153.7-42.22-230.6 1.75-223.1-7.3-446.8 11.47-669.36 23.05-0.33 46-2.77 69.06-3.29 5.25-0.39 10.49-0.56 15.73-0.57zm437.35 0.28c10.2 0.07 7.9 17.64 7.9 25.04-3.4 52-6.8 104.2-18.4 155.3-8.4 71.5-33 139.6-46.1 210.2-12.5 73.6-39.5 143.6-59.9 215.1-21.8 45.6-44.4 91-66.64 136.5 0.8-63.1 15.97-125.5 28.34-187.3 14.7-73.6 32.1-146.6 45.9-220.4 13.1-109.8 30.9-219.1 40.7-329.3 22-1.91 44-3.23 66-4.91 0.8-0.16 1.5-0.23 2.2-0.23zm-84.2 2.99c1.6 90.75-18.2 179.55-29.6 269.15-8.8 77.5-27.8 153.3-41.2 230-8.38 42.3-21.57 83.5-30.34 125.7-30.13 70.9-72.5 135.7-106.85 204.2 0.53-35.8 5.81-71.6 8.43-107.4 3.37-86.2 28.39-169.6 40.26-254.8 20.28-149.8 54.91-298 58.52-449.7 4.5-7.3-0.16-19.65 13.09-16.16 29.19-1.55 58.49 0.02 87.69-0.99zm-523.97 0.32c23.44 0.02 46.88 0.08 70.31 0-1.95 82.13-6.86 164.13-9.82 246.23 4.47 133.5 1.98 267.2 2.66 400.8 4.13 7-3.8 5.7-5.47 9.2-12.76 78.6-19.1 158.4-34.24 236.4-21.43-54.9-46.18-108.7-57.13-167-5.84-27.8-19-53.8-20.08-82.5-0.58-46.8-9.51-93-9.86-139.7-10.45-42.6 0.32-87-6.78-130.1-1.87-32.7-8.27-65.5-5.16-98.4 0.95-91.5-3.26-183.4 5.26-274.74 23.44-0.2 46.87-0.21 70.31-0.19zm274.97 0.07c44.76 0.02 89.54 0.67 134.24 2.77 0 81.09-10.55 161.39-18.9 241.89-8.09 47.8-18.84 95.2-23.95 143.5-12.81 67.1-27.08 133.9-37.39 201.4-5.25 51.2-27.57 98.3-41.36 147.4-18.78 42.8-35.1 87.1-57.19 128.3-10.42-97.3-9.4-195.4-2.37-292.9 1.71-27.9 3.73-56 1.62-84-3.21-57.4 8.39-114 10.85-171.1 3.64-105.8 18.89-211.2 15.26-317.23 6.4-0.02 12.79-0.03 19.19-0.03zm205 658.06c-2.8 38.6-15.1 84.4-16.8 125.6-35.78 51.1-53.1 112.3-90.06 162.5-21.93 30.6-36.1 72.1-68.99 91.9-1.53-17.7 10.67-37.9 17.89-55.5 30.57-66.6 63.15-132.3 93.45-199 22.94-41 44.01-83.6 64.51-125.5zm-64.5 19.1c-5.33 35-8.06 70.5-14.75 105.2-35.58 75.2-67.41 152.3-105.36 226.4 3.51-48.8 8.22-100.7 14.2-150.5 11.92-18 26.46-34.6 34.3-55.1 5.31-15.1 12.44-29.6 24.19-40.8 17.35-26.8 29.81-56.6 45.6-84.3 0.46-0.3 1.37-0.7 1.82-0.9zm-471.19 14c13.89 42 21.83 86.7 36.05 129.1 12.23 34.5 26.24 68.5 38.43 103-5.14 40.9-9.1 83.2-20.4 123.1-22.98-45-46.5-89.8-65.89-136.4 1.07-72.9 6.25-146.1 11.81-218.8zm-186.3 5.5c35.38 55.7 63.06 120.8 102.03 175.3 12.75 58.1 24.56 116.5 38 174.4-46.94-67.1-77.42-145.5-118.6-216.6-9.6-43.8-15.08-88.7-21.43-133.1zm450.61 2.1c4.78 66.7 1.57 133.9 10.6 200.3-18.16 42.5-36.59 84.8-52.39 128.3-1.79 2.5-5.05 16.2-8.55 8.7-9.08-29.1-23.41-56.7-27.87-87.1-1.3-11.2-9.27-22.8-3.37-34 30.17-70.9 60.92-141.9 81.58-216.2zm-144.42 6.1c4.84 1.4 2.25 8.9 4.34 12.3 18.15 93.6 33.88 188 61.86 279.3 3.2 21.6 16.21 40.5 18.76 62-44.47 7.7-89.56 6.1-134.48 2.3 13.7-118.8 35.43-237 49.52-355.9zm-353.44 3.6c17.84 33.5 26.77 71.3 46.17 104.2 0.41 17.2 13 28.4 22.02 41.5 32.21 64.4 66.26 128 99.2 192-58.85-65.3-99.34-144.5-144.46-219.4-7.68-39.3-13.09-79.3-22.93-118.3zm598.17 1.2c-6.88 111.4-19.67 222.4-29.71 333.6-35.95 5.7-72.28 9.5-108.2 15.8 7.72-34.5 27.64-64.5 36.07-98.9 32.25-84.2 74.31-164.4 101.84-250.5zm-457.14 11.6c30.51 77.3 48.23 160.8 87.55 235 16.36 34.5 30.91 70 49.92 103.1-23.66-0.9-47.97-1-70.68-8.5-30.32-79.2-38.19-164.6-58.57-246.6-3.82-27.5-5.1-55.4-8.22-83zm461.38 331.1c1.08 0 2.03 0.2 2.67 1-16.26 6.1-32.12 14.6-49.78 15.8-127.81 12-258.9 32.7-385.16-0.9-2.92 0.6-19.33-4.4-8.8-5.4 70 5.3 139.76 14.7 210.15 12.5 75.45 2.4 149.7-12.7 224.12-22.3 1.47 0.8 4.43-0.6 6.8-0.7zm14.64 14.5c11.61 0.2 27.4 4.3 22.84 19.4-50.66 46.9-126.58 36.7-189.99 41.2-101.07 5.3-205.91 7.3-302.36-27.7-11.46-3.2-17.39-13.2-10.91-24.3 60.09 11 121 21.3 182.02 26.9 78.96-6.2 158.64-5.1 236.83-19.3 21.04-0.6 40.29-8.3 59.31-16.2h2.26z" transform="scale(.8)"/>
</svg>
