<?xml version="1.0" encoding="UTF-8" standalone="no"?>
<svg xmlns:rdf="http://www.w3.org/1999/02/22-rdf-syntax-ns#" xmlns="http://www.w3.org/2000/svg" height="1710pt" width="992pt" version="1.1" xmlns:cc="http://creativecommons.org/ns#" xmlns:dc="http://purl.org/dc/elements/1.1/" viewBox="0 0 992 1710">
<path d="m452.45 8.76c100.87 0.92 201.55 6.06 301.37 20.4 61.13 8.34 120.45 25.97 180.92 37.85 5.76 0.34 5.98 7.44 6.73 11.61 1.92 18.19 11.71 34.51 11.9 53.02 1.4 42.11 24.25 80.49 21.81 123.03 8.74 48.58 10.25 98.1 11.92 147.33-5.48 145.89 10.23 294.09-22.35 437.74-13.54 76.76-46.08 148.39-69.73 222.26-30.1 94.6-61.65 189-99.03 281-23.95 52.9-46.93 106.2-70.87 159.1-8.14 17.8-14.38 36.5-18.43 55.6-12.04 25.1 19.59 41.1 35.08 54.4 13.54 5.9 13.58 20.7 15.14 33.2-43.64 33.5-100.18 34.1-151.66 46-65.97 4.5-132.2 14.8-198.28 6.7-43.61-9.6-93.22-10.9-129.32-40.2 0.15-8.8-5.06-22.3 5.25-27.1 17.99-13.8 41.28-27.3 45.66-51.3-64.78-116-120.07-237.1-182.57-354.4-18.3-32.6-32.5-67.1-44.55-102.4-18.02-44.2-33.22-89.8-45.09-135.94-11.11-54.31-22.64-108.52-34.34-162.7-8.89-51.39-10.95-103.61-16.75-155.39 0.29-62.12 4.12-124.2 5.93-186.33 4.44-123.8 35.02-245.19 72.15-362.9 8.96-20.68 11.56-44.32 25.46-62.62 48.68-14.83 100.38-15.42 149.68-28.27 64.16-10.55 129.92-8.54 193.97-19.69m-5.73 8.82c-64.23 9.06-129.6 9.78-193.39 21.9 0.27 11.63 3.74 22.89 5.78 34.28 82.32-21.55 169.26-13.81 253.84-16.84 72.27 2.99 144.4 8.91 216.61 13.08-1.19-11.85 5.38-22.89 4.99-34.56-95.23-14.93-191.78-15.23-287.83-17.86m300.46 19.35c-4.4 10.8-5.29 23.25-6.83 34.79 35.29 11.55 76.48 6.45 111.6 21.35 7.47 16.27-2.88 32.7-3.65 49.21-1.49 17.76-7.01 34.68-17.93 48.87-7.88 19.58-50.7 7.81-34.01-13.74 13.68-1.72 14.85-20.01 8.71-29.83-8.49-0.39-19-5.44-26.39 1.1-31.89 17.25-30.49 68.96-1.53 88.14 14.24 14.45 42.44 18.73 57.65 3.87 40.92-28.15 43.89-82.46 59.18-125.67 1.83-4.57 8.89-3.25 9.95 1.2 6.84 26.38 10.8 53.37 15.71 80.15 9.93 61.07 24.28 121.93 24.7 184.01-0.51 11.68-13.54 11.96-21.4 16.53-14.88 7.57-30.61 13.31-45.76 20.24-21.2 14.77-42.41 29.59-63.58 44.42-2.95 1.94-8.28 7.6-2.66 9.57 11 3.81 20.8 10.02 30.88 15.71 31.44-23.64 64.63-47.13 102.64-57.59 4.48 59.77-1.39 121.05-1.68 180.9 11.66 9.92 20.67 25.03 33.15 32.59 2.83-71.58-0.67-143.28 2.05-214.84 1.32-96.8-6.3-195.28-34.83-288.18 3.26-22.12-6.34-42.83-10.86-64-62.32-10.01-122.21-31.5-185.11-38.8m-509.01 5.24c-42.36 7.29-84.36 18.58-127.49 19.97-31.71 102.51-64.84 205.54-80.42 312.11-11.43 93.2-14.85 189.05-11.35 281.63 11-8.15 17.25-25.22 26.88-36.05 5.63-32.69-0.14-67.41 10.92-99.25 3.96-28.3 4.2-57.08 7.11-85.45 4.94-8.96 15.4 0.57 22.26 2.8 29.55 10.51 51.14 33.98 76.2 51.77 9.86-2.94 19.16-7.84 28.63-11.92-1.98-9.34-10.84-14.48-17.78-19.92-17.07-12.07-31.79-27.13-48.89-39.12-16.42-8.76-33.41-16.46-49.89-25.07-6.92-7.01-0.65-16.97 0.36-24.95 16.62-73.12 30.95-146.8 52.27-218.77 3.23-12.36 6.55-29.8 19.69-33.81 5.74 13.42-6.69 28.29-0.38 41.59 8.6 23.38 11.99 50.52 33.92 66.05 19.29 25.85 57.65 31.1 82.93 11.37 22.69-22.73 14.16-62.86-9.79-81.07-36.73-6.4 0.49 42.59-27.64 51.17-23.07 11.73-40.24-13.3-51.31-29.85-3.94-19.98-4.6-40.56-1.69-60.74 1.3-8.25-0.65-18.68 6.83-24.44 22.54-6.81 48.83-3.48 69.76-14.95-3.3-9.59 0.78-30.72-11.13-33.1m171.36 24.39c-17.64 1.16-35.59-1.14-52.94 3.06-26.91 7.76-55.44 3.36-82.29 11.56-0.56 3.92 5.1 5.17 7.96 6.62 33.38 11.29 63.66 29.93 93.25 48.69 11.38 9.33 25.89 26.77 42.12 17.01 61.86-2.93 124.53-9.73 186.06 1.29 26.77-36.98 76.34-50.14 112.11-73.63-39.26-6.25-79.19-8.44-118.93-9.01-62.42-2.19-124.85-7.29-187.34-5.59m330.89 16.87c-18.41 10.05-37.92 17.9-57.45 25.55-22.19 7.28-38.72 24.85-58.55 36.41-21.42 23.96-15.44 59.12-14.2 88.43-0.32 63.3 28.66 125.44 75.84 167.14 30.39 19.6 59.39 41.79 92.69 56.37 6.56 0.94 13.84 7.13 20.12 2.55 20-14.18 38.68-30.19 58.76-44.26 24.3-13.95 50.59-24.07 75.3-37.21-5.48-77.95-20.52-154.9-33.43-231.82-2.55-2.1-2.4 3.11-3.36 4.65-5.2 24.43-18.32 46.02-28.14 68.72-15.77 28.83-51.11 51.27-83.39 35.39-10.28-10.67-27.18-16.38-31.06-31.87-8.88-20.11-12.47-46.57 2.52-64.49 9.47-17.16 33.14-27.72 51.33-18.37 16.02 8.56 15.93 34.33 0.43 43.39-7.75 5.23 7.19 7.39 11.07 5.85 24.6-23.55 19.38-59.85 23.67-90.5-34.03-5.21-68.15-10.9-102.15-15.93m-494.81 6.08c-19.6 3.27-39.1 7.46-58.5 11.71-1.07 12.47-8.27 24.17-5.45 36.94 2.79 19.13 0.09 43.05 18.03 55.29 8.69 4.42 19.24 9.72 26.67-0.35 2.02-12.6-5.38-26.7-0.7-39.28 3.89-10.3 15.68-11.28 24.98-12.34 27.29 13.27 42.73 47.71 34.92 76.98-13.01 24.96-38.06 43.75-67.83 39.14-35.03-11.05-65.39-37.57-75.88-73.43-3.84-7.62-2.22-17.51-6.71-24.3-3.14 7.51-6.52 14.99-8.29 22.98-12.74 56.31-25 112.74-37.9 169.01-3.65 10.65-3.51 21.93-3.11 33.04 21.27 15.88 47.08 25.2 66.32 43.94 17.23 14.17 33.97 30.13 51.72 42.92 52.48-25.52 103.03-59.21 139.86-105.03 21.44-36.83 40.38-76.28 46.6-118.87-0.38-26.87-0.93-53.78 0.39-80.62-17.18-27.44-49.39-39.22-75.7-56.29-23.09-6.95-44.76-22.14-69.42-21.44m270.98 69.1c-38.53 0.78-76.77 4.82-114.96 9.75 0.39 8.76-0.78 17.94 1.87 26.39 33.92-1.98 67.91-3.41 101.86-5.57 31.42-2.15 62.16 6.86 93.46 7.47 0.6-11 0.33-22.05-0.04-33.05-27.08-4.38-54.72-7.11-82.19-4.99m-50.06 40.85c-21.25 1.46-42.5 3.3-63.33 7.82-1.27 8.41-1.7 16.95-1.9 25.45 66.34-4.19 132.79-3.34 199.24-2.8-1.98-11.19-2.43-26.44-16.9-27.55-38.7-3.26-78.15-2.65-117.11-2.92m44.99 36.99c-36.74 3.17-73.96 1.73-110.3 8.67-2.12 9.73-4.86 19.61-5.16 29.64 69.05-1.79 138.74-6.17 207.73 0.02-2.27-11.54 2.32-35.74-15.26-36.49-25.66-0.92-51.3-3.81-77.01-1.84m-44.1 41.98c-24.63 0.87-49.41 3.95-73.67 7.17-4.26 10.05-9.84 20.73-12.31 31.28 77.33-1.8 154.72-4.11 232.11-4.16 0.3-9.93-5.42-19-10.03-27.42-44.08-12.37-90.91-4.78-136.1-6.87m49.59 42.37c-46.65 4.4-94.63-2.46-140.45 9.64-3.85 5.88-6.69 12.38-9.79 18.68 87.47 2.09 175.39 0.26 263.03 0.89-0.95-8.87-6.24-16.91-10.44-24.63-33.51-7.64-68.34-4.09-102.35-4.58m31.87 38.19c-62.85 1.3-125.91 1.84-188.79 4.94-3.55 6.23-12.11 12.02-11.6 19.73 102.15 6.28 204.5 7.48 306.78 4.11-8.65-9.06-11.53-25.57-25.7-27.66-26.86-0.41-53.9-2.21-80.69-1.12m-209.19 32.41c-12.69 9.99-27.01 21.67-37.63 31.8 47.21 2.11 95.28-0.47 142.8 1.9 81.1 6.02 162.42 0.79 243.6-0.68 2.68-0.86 7.64 1.45 8.55-2.09-11.41-8.47-22.27-17.67-33.59-26.24-93.68 5.81-187.68-1.87-281.5-0.09-13.92-1.16-30.6 3.58-42.23-4.6m-51.71 42.05c-16.14 8.79-30.85 20.04-46.37 29.87 7.13 5.26 19.59 1.14 28.31 2.73 158.49-2.16 317.43 3.33 475.49-10.17-4.42-10.66-22.68-15.73-32.91-22.71-141.29 8.95-283.07-0.96-424.52 0.28m643.37 10.88c-28.65 17.16-59.47 32.05-83.45 55.77 25.96 32.8 55.44 64.14 83.31 94.91 5.45-44.93 1.59-93.69 2.85-140.06-1.56-2.71 3-11.9-2.71-10.62m-857.17 1.86c-6.9 51.47-11.05 103.3-16.92 154.91-0.76 2.56 1.23 3.13 3.37 2.86 19.71-30.6 45.18-57.2 66.96-86.37 6.27-9.53 20.7-17.23 17.45-30.34-19.26-19.99-44.78-32.38-70.86-41.06m673.44 19.37c-54.59 8.34-110.17 2.4-164.87 10.29-120.02-1.57-240.24 4.2-360.07-2.28-20.87 7.88-41.77 16.35-62.06 25.71 15.94 6.3 36.43 3.61 53.97 5.06 126.71 7.82 253.55 1.04 380.41 2.69 74.42-1.28 148.16-12.63 222.14-19.91-20.19-12.64-44.46-24.83-69.52-21.56m55.12 32.97c-62.29 12.21-125.84 14.18-189.15 14.99-152.69 13.08-305.62-2.16-458.42-1.66-9.59-1.7-3.92 2.83-0.14 3.45 151.11 17.65 303.6 12 455.4 10.11 19.21-2.84 39.51 1.48 58.24-3.88 54.29-8.48 110.17-7.04 164-18.86-1.84-9.43-22.23-1.88-29.93-4.15m38.42 16.63c-0.92 4 4-0.92 0 0m-21.34 4.39c-30.05 13-55.84 33.72-75.08 60.19-7.86 9.74-18.96 18.54-19.73 32.02 23.05-19.08 43.59-42.5 66.31-62.51 3.05 0.82 1.57 5.77 0.39 8.14-19.14 21.24-40.24 40.92-57.5 63.77 43.56-16.84 80.55-54.15 91.34-100.32 1.1-3.55-5.07-0.16-5.73-1.29m-42.87 1c-10.19 0.27-11.03 10.31-11.75 18.32 9.23-5 18.41-10.15 27.6-15.24-0.62-6.27-12.01-2.18-15.85-3.08m-639.27 1.76c-12.24 13.87-25.12 29.07-35.62 44.68 23.41-21.29 53.96-30.18 84.33-37-15.37-5.47-32.46-6.29-48.71-7.68m580.78 3.2c-10.79 0.73-20.4 6.41-19.44 18.57 7.11-5.7 14.45-11.1 22.26-15.88 2.06-1.76-0.96-3.95-2.82-2.69m130.59-0.02c-16.5 9.11-20.96 29.07-33.29 42.29-7.63 13.46-26.66 27.34-18.06 43.79 13.5-14.4 25.61-32.92 40.66-46.67-4.61 19.25-23.5 33.25-31.62 51.79 25.87-20.73 53.21-46.03 56-81.35-2.24-5.66-6.33-13.36-13.69-9.85m-623.48 3.66c-3.99 7.14-6.61 15.02-9.33 22.72 20.76-5.76 41.8-10.89 62.15-17.93-16.7-4.23-35.46-2.1-52.82-4.79m412.32 2.37c-12.86-0.22-13.99 13.55-15.58 23.34 11.42-6.05 20.7-15.39 31.65-22.22-2.02-4.93-11.74-0.09-16.07-1.12m96.98-0.18c-27.17 16.81-51.87 38.7-70.75 64.77-8.52 9.3-20.58 21.58-17.28 34.41 24.12-20.02 44.69-45.92 71.03-63.74 1.84-2.17 12.69-6.23 8.77-0.21-21.95 21.06-45.76 40.5-65.23 64.06-1.3 4.28 4.75 1.29 6.54 0.51 21.79-11.17 38.54-29.63 57.96-44.21 9.92-6.79 15.01-17.88 21.02-27.85 9.09-11.38 9.49-37.52-12.06-27.74m-429.13 2.17c-2.16 4.61-7.25 11.68-5.78 17.58 10.14-5.13 20.38-10.06 30.42-15.37-6.14-4.54-16.79-1.9-24.64-2.21m275.7-0.26c-14.3-3.89-21.92 3.98-19.94 17.2 3.33-2.38 25.89-14 19.94-17.2m97.38 0.4c-21.92 5.23-39.53 20.01-57.73 32.43-13.54 14.51-24.6 31.32-38.02 46.04-4.11 3.62-6.46 11.58-2.62 15.73 23.35-19.72 43.27-43.79 69.21-60.2 2.75-1.83 8.48-3.91 5.73 1.45-20.82 22.42-44.67 42.39-65.46 64.72 20.65-1.84 36.56-16.87 52.8-28.09 13.77-18.87 35.89-33 40.97-57.01 3.86-6.06 7.7-20.07-4.88-15.07m-310.08 1.78c-4.98 0.51-7.2 6.07-4.99 10.43 5.96-2.92 12.6-4.6 18.2-8.15-1.68-4.25-9.36-1.37-13.21-2.28m141.75 0.04c-12.76-3.63-17.96 7.71-21.44 17.46 12.28-4.18 24.1-9.73 35.85-15.21-1.18-4.92-10.74-1.3-14.41-2.25m-307.16 0.84c-18.04 3.65-35.56 9.49-53.53 13.46-27.8 8.92-47.49 31.58-68.09 50.95-5.15 5.71-5.9 13.93-7.57 21.19 28.73-16.04 55.14-37.19 83.34-54.55 4.01-1.7 6.8 7.02 1.59 7.49-25.79 18.24-53.28 35.63-75.19 58.26 17.65 4.49 32.35-9.16 48.55-13.69 32.87-15.7 57-44.67 74.57-75.75 0.28-3.14 0.85-8.52-3.67-7.36m219.03-0.02c-3.5 2.37-3.43 8.45-4.19 12.58 7.76-2.1 14.88-6.1 21.74-10.2-2.54-4.92-12.57-0.84-17.55-2.38m178.47 1.17c-35.74 12.23-56.82 45.19-82.15 70.97 0.21 6.79-1.55 13.19-3.69 19.55 25.2-19.72 48.09-42.83 73.09-63.04 3.76 1.9-0.32 6.82-1.54 9.52-18.71 19.29-42.03 34.08-58.85 55.19-0.33 1.77-5.65 5.32-2.6 7.12 18.51-3.88 33.84-15.65 46.86-28.82 22.54-16.8 40.52-41.98 41.53-70.89-4.21-0.38-8.48 0.01-12.65 0.4m-257.13 3.22c-15.04 5.92-28.98 14.61-43.75 21.26-15.17 5.92-22.7 21.33-34.2 31.79-7.89 7.09-15.46 15.4-17.65 26.09 0.94 0.79 2.1 1.7 3.06 0.38 22.32-19.09 44.24-38.76 67.75-56.4 2.65-2.55 7.24 2.68 3.88 4.76-22.88 21.82-48.79 40.79-70.87 63.33 34.36-11.28 64.48-33.39 83.71-64.23 5.5-7.21 17.6-23.76 8.07-26.98m-64.72 2.02c-31.94 9.61-72.66 14.22-89.78 46.47-8.51 10.77-20.48 17.98-30.08 27.57 0.35 3.87-1.98 11.86 2.61 13.26 26.37-19.55 54.04-37.39 79.89-57.63 3.68-1.9 8.42 4.49 4.86 7.05-23.8 19.02-50.01 35.23-73.36 54.68 17.59-5.98 35.29-12.12 52.29-19.66 15.09-12.58 30.38-25.02 45.61-37.43 6.42-10.36 12.37-21.1 18.28-31.76 2.75-6.29-7.29-2.19-10.32-2.55m118.72-0.02c-20.91 8.02-46.25 14.05-57.45 35.56-9.63 16.5-31.76 26.52-32.28 47.32 19.08-13.23 33.68-35.1 54.54-47.3 2.23-0.77 7.26-2.8 6.18 1.22-17.56 19.4-38.12 36.22-54.68 56.42 17.65-7.57 37.63-13.07 49.96-28.94 20.67-13.67 26.76-38.59 39.74-58.29 3.42-3.86-1.43-9.13-6.01-5.99m75.04-0.13c-27.42 4.6-60.95 10.35-72.91 39.26-8.37 18.38-35.65 30.15-32.11 51.74 25.42-20.51 47.67-46.61 72.87-68.13 2.06-1.36 4 1.54 4.21 3.42-17.93 22.67-44.33 38.96-58.64 64.15 22.99-6.61 41.23-22.45 57.29-39.54 17.08-11.97 26.08-31.07 36.88-48.19 2.75-5.36-5.19-2.51-7.59-2.71m72.59-0.27c-46.12 11.55-94.36 41.85-108.49 89.48 24.03-18.75 45.13-41.17 69.02-60.08 3.89-2.33 3.75 3.26 1.17 5.09-19.14 20.28-41.55 38.8-58.99 60.1 39.97-6.9 70.55-37.46 92.12-69.93-0.51-7.63 9.22-19.1 5.17-24.66m327.28 5.29c-6.34 16.95-23.1 35.15-11.66 53.35 5.58-9.62 10.9-27.21 21.41-31.01-0.41 15.85-12.21 31.63-13.22 47.33 11.59-12.98 26.61-24.69 29.72-42.9-9.19-8.12-17.51-20.55-26.25-26.77m35.49 39.46c-7.56 10.69-17.28 20.24-23.01 31.98 14.79-2.08 30.86-3.73 44.65-6-3.77-10.01-14.23-17.96-21.64-25.98m-62.7 9.07c-8.84 9.73-20.26 18.1-27.31 28.86 10.34 1.98 20.97-2.16 31.04-4.36-1.12-7.62 0.68-19.08-3.73-24.5m-60.07 8.2c-12.67 8.85-26.64 15.97-38.66 25.71 13.85 1.33 27.78-4.12 41.81-3.46 0.32-6.71 2.28-19.07-3.15-22.25m-72.74 7.08c-7.77 6.58-17.76 12.02-24.44 18.9 5.65 4.32 17.55 0.96 25.45 0.44 0.27-5.03 4.92-18.32-1.01-19.34m-476.21 8.31c-10.87 4.87-23.27 10.38-32.16 17.63 8.28 1.51 20.66-1.05 30.32-1.39 1.83-4.5 5.59-14.48 1.84-16.24m63.1-0.1c-10.21 5.21-22.09 11.02-30.3 17.5 7.75 1.81 18.25-0.38 26.53-1.04 1.7-4.57 6.83-14.59 3.77-16.46m205.12-0.08c-8.53 5.84-19.2 10.77-25.49 18.39 7.57-0.59 15.85-0.29 22.79-2.7 2.21-3.81 8.23-14.42 2.7-15.69m-77.33 1.88c-8.45 4.66-15.41 11.63-23.54 16.82 4.68 4.2 12.56-2.01 18.07-2.18 2.39-3.81 11.2-13.52 5.47-14.64m208.18 0.06c-8.35 4.99-17.94 9.35-24.49 16.66 8.71-2.35 20.89 2.33 26.31-6.58-1.3-2.2 3.82-12.14-1.82-10.08m-576.84 2.03c-2.84 1.36-3.93 4.79-4.39 7.7 4.82 1.78 7.69-8.77 4.39-7.7m90.57 0.02c-5.55 1.81-10.06 5.73-14.7 9.11 6.06 6.93 21.06-5.28 14.7-9.11m790.54 0.04c-15.41 5.95-33.98-1.99-49.52 6.79-31.54 1.95-62.91 6.82-94.5 8.25-50.71 5.41-103.18-5.99-152.4 10.68-6.93 2.94-9.37-9.79-16.75-5.7-14.78 2.93-29.83 3.39-44.71 5.37-9.77 3.51-17.2-8.49-27.68-4.06-169.94 11.59-340.34 1.67-510.22-3.51-2.82 2.29-4.54 5.59-6.73 8.45 88.3 12.25 177.86 11.77 266.8 17.17 99.62-7.43 199.69-3.21 299.4-8.39 62.38-6.27 125.37-0.81 187.55-9.6 23.95-3.49 48.23 2.42 72.11-1.81 23.94-5.93 48.92-1.51 73.13-5.99 4.91-1.05 13.68-0.45 15.78-6.1-3.35-3.84-7.15-11.56-12.26-11.55m-373.42 1.13c-6.32 3.45-12.59 7.14-18.24 11.63 3.06 4.31 11.95 1.93 17.49 2.3 0.52-3.71 4.34-14.43 0.75-13.93m-213.73 4.67c-4.79 1.26-17.53 7.72-5.23 8.32 7.05 4.77 8.57-6.94 5.23-8.32m606.17 18.09c-3.46 1.28-10.13 2.9-6.76 7.53 7.02 10.51 13.29 23.88 22.04 31.93 7.03-11.61 2.6-39.04-15.28-39.46m-53.33 5.91c-34.59-4.4-40.6 40.66-64.06 54.5-17.47-25.48-42.08-57.45-77.11-46.09 13.65 12.12 30.4 24.42 44.5 37.51 13.81 14.71 22.68 33.23 35.32 48.86 12.31-17.17 20.03-37.41 32.41-54.65 10.65-12.67 22.17-24.74 32.2-37.89 1.19-2.82-1.22-2.55-3.26-2.24m-65.65 2.26c-9.36 1.7-19.74 1.09-28.45 3.4 0.91 3.97 7.4 6.03 10.95 8.81 10.77 4.52 12.08 18.96 21.55 24.13 8.95-11.43 18.79-22.84 26.11-35.11-8.41-3.49-20.46-1.57-30.16-1.23m90.22 1.95c-33.04 15.74-46.45 50.58-67.03 78.4-6.11 11.84-4.85 27.55-15.69 36.73-3.76 58.96-16.56 116.8-25.46 175.1-22.2 103.32-36.75 208.12-58.51 311.52-2.17 7.3 9.96 7.7 9.36 14.5-2.17 7.1-5.19 14-6.51 21.3 13.72-10.4 31.01-13.6 46.47-20.5 42.31-109.8 76.36-223.1 114.28-334.7 24.32-76.5 46.6-155.9 42.48-236.89-9.1-14.59-19.12-28.65-28.6-43.01-1.72-4.57-7.25-2.76-10.79-2.45m-902.18 3.46c-17.57 15.12-9.46 41.64-5.94 60.17 3.67-24.61 31.97-35.23 37.78-58.06-8.4-3.29-21.94-0.92-31.84-2.11m655.78 1.43c-25.89 13.76-43.54 37.34-60.47 60.62-2.62 2.82-5.4 7.24-9.74 6.79-15.24-25.67-37.56-48.88-65.97-59.85-15.87 1.13-36.15-2.63-49.42 1.84 26.77 12.19 51 33.24 76.06 50.11 14.88 15.39 27.94 32.81 43.07 47.8 16.19-15.42 26.51-38.45 45.32-52.32 20.7-17.86 43.5-34.47 62.37-53.72-11.92-1.66-27.76-0.6-41.22-1.27m-29.14 1.24c-29.54 1.99-62.16 0.31-89.52 3.94 18.99 12.48 36.53 26.97 50.06 45.5 15.69-15.75 31.22-32.01 45.33-49.16-1.47-0.07-4.4-0.21-5.87-0.28m92.25 0.97c-44.9 32.56-93.41 65.74-120.65 115.63-22.86 168.32-17.9 338.82-24.11 508.32 21.57-10.9 45.97-16.2 70.37-17.1 11.97 5.3 3.54 18.9 3.46 28.3 21.11-17.7 50.48-20.7 73.58-34.6 12.56-43.4 19.35-88.4 26.9-133 17.94-92.3 34.02-185.04 50.25-277.71 6.8-30.45 7.42-61.73 10.21-92.67-8.12-14.88-14.3-31.03-25.6-43.93-12.74-20.52-35.06-31.6-52.48-47.52-3.61-2.46-6.85-7.61-11.93-5.72m-656.69 1.35c25.91 27.07 52.55 55.73 64.95 92.06 3.82 11.58 7.66-1.71 9.81-6.29 15.58-19.29 31.68-38.31 47.93-57.08 6.85-8.67 19.85-11.44 25.44-20.66-12.43-3.01-25.53-2.55-38.11-1.44-10.37 6.88-20.36 14.73-26.74 25.69-4.84 5.95-8.19 17.08-17.58 16.37-16.81-20.92-35.84-48.92-65.7-48.65m41.7 3.94c7.2 10.56 17.74 18.72 27.37 27.06 7.76-7.28 16.4-15.34 21.78-24.16-15.01-2.88-33.03-0.97-49.15-2.9m245.98 2.68c-19.5 1.96-42.24-2.42-59.81 3.1 20.21 9.51 32.26 29.59 49.19 43.44 12.31-16.43 28-30.21 40.2-46.82-9.85-0.72-19.74-0.48-29.58 0.28m50.26-0.25c-26.92 14.44-40.17 43.96-61.79 63.44-17.81-26.46-42.27-48.7-71.46-61.82-11.41 1.01-26.39-2.56-35.82 1.79 20.62 17.13 44.13 34.33 65.82 51.53 20.55 12.58 29.7 37.82 46.11 53.46 16.37-31.94 42.16-57.5 65.15-84.83 9.54-8.11 22.34-14.22 30.04-23.05-11.39-2.9-25.81-0.24-38.05-0.52m-354.45 1.05c-24.33 17.93-41.59 42.13-50.47 70.87 4.58 89.29 29.25 175.45 48.36 262.31 14.68 38.7 24.94 79 39.06 118 11.04 26.3 23 52.3 34.4 78.6 18.4 44.1 44.22 84.6 66.61 126.7 13.54-6.2 25.44-18.3 38.58-26.1 4.18-8.4 2.61-17.9-2.17-25.7-18.77-69.3-41.3-137.6-58.78-207.2-6.97-44.9-18.07-89.01-25.12-133.88-4.83-51.3-10.32-102.58-14.99-153.88-7.28-18.48-8.73-40.1-23.09-55.04-15.28-20.02-28.98-44.42-52.39-54.68m408 4.97c-32.17 16.08-53.06 46.28-78.12 71-10.71 15.53-19.77 32.35-28.19 49.23 1 68.85-4.94 138.05 4.68 206.58 1.03 100.7 15.23 200.8 20.84 301.3 15.01-4.8 26.79-18.5 43.17-20.6 14.95-2 27.95-10.5 42.8-12.7 10.7 5.5-1.27 23.5 2.25 30.6 22.99-12.7 47.33-24.4 73.56-29.3 7.52-0.6 17.6-8.6 23.26-0.3 3 6.8-4.06 21.1 2.87 23.5-0.3-8.3-0.56-16.4 3.88-23.7 0.85-155.9 6.45-311.75 18.33-467.2-0.79-10.35 4.97-23.95-5.31-31.4-23.51-32.27-52.74-60.68-87.94-79.98-11.62-6.14-22.05-17.42-36.08-17.03m-235.23 4c-20.48 9.54-32.55 30.19-48.77 45.09-17.85 15.67-25.92 38.63-36.86 58.99 6.62 95.41 19.1 190.79 40.81 284.13 9.77 50.2 26.92 98.7 39.76 148.2 7.28 22.8 10.42 47.2 23.03 68 2.24 2.9 2.37 6.5 2.26 10 10.17 0.4 20.86-9.6 30.21-3.4 3.03 7.5 2.2 16.1 5.34 23.7 12.6-6.5 20.93-20.3 35.04-24 16.98-5.1 34.13-10 50.91-15.5-14.87-160.6-26.54-321.63-24.45-482.93-25.06-49.2-72.06-83.45-117.28-112.28m500.51 599.11c-33.62 7.3-72.16 20.4-85.43 55.2 7.39-1.2 14.36 0.9 15.78 9.4 10.91-10.7 20.4-23.2 32.93-32.2 2.53-1.6 9.1-5.3 9.8 0-12.95 18.7-38.96 30.4-44.68 53.9 13.46-12.3 29.48-20.7 46.71-26.9 22.11-8.4 25.25-35.4 35.02-54 4.11-7.6-4.6-6.8-10.13-5.4m-183.14 1c-24.9 7.4-49.78 16.2-70.3 32.8-5.9 1.6-17.65 15.7-6.39 16.7 10.48-1.2 6.93 12.7 13 17.1 13.09-9.8 19.97-27 34.93-34.3 4.99-2.8 9.29 3.6 6.27 8.1-13.96 10.1-24.74 24.6-35.3 37.9 14.01-14.7 33.91-18.4 52.51-24.4 8.11-16.8 17.68-34.6 15.1-54.2-2.46 0.1-7.37 0.2-9.82 0.3m94.86 1.1c-33.46 2.9-72 19.1-86.16 51.1 15.76-3.3 12.19 13.2 14.23 21.3 11.01-13.1 21.67-26.6 33.76-38.7 2.6-4.7 9.31-0.1 7.02 3.9-8.86 13.5-21.86 24.3-29.55 38.5 14.58-7.6 29.6-14.4 45.18-19.7 13.28-15.5 24.25-35.5 22.72-56.6-2.41-0.2-4.81-0.2-7.2 0.2m-182.02 2.8c-32.03 7-62.03 21-85.39 43.8 0.38 7.8 10.79-2.2 15.76-0.2 11-3.5 5.41 12.1 11.79 12.8 9.13-10.3 17.13-21.7 26.77-31.6 2.65-3.9 11.54-2.2 7.95 3.9-10.08 13.2-21.62 25.6-30.57 39.7 12.36-11.3 29.94-11.5 44.3-18.8 4.88-15.6 18.41-35.6 9.39-49.6m328.12 3.1c-17.3 4.9-32.12 15.1-46.15 25.9-4.99 7.7-14.45 19.7-0.05 24.2 12.05-5.9 17.56-22.2 28.49-30.6 14.56 9.5-14.62 23-14.03 31.8 6.08-1.6 12.41-3.9 17.31-7.7 5.05-14.9 11.36-29.4 16.7-44.2-0.57 0.2-1.7 0.5-2.27 0.6m-424.26 1c-36.13 6-82.19 25.8-83.04 68.4 11.9-3.4 22.59-10.3 34.36-14.1 8.74-12.1 18.97-23.1 29.56-33.6 10.16 4.8-5.3 15.6-7.62 21.4-6.24 12-25.28 22.6-18.12 37.3 10.24-12.5 24.89-19 38.49-27 10.03-14.5 13.4-40.1 6.37-52.4m-96.84 11.8c-24.48 5.5-46.26 19.3-64.3 36.1 2.99 11.6 9.94 23.6 15.91 33.4 11.52-8.6 16.24-25.2 24.8-36.9 2.63-3.1 9.56-4.6 9.92 1.1-8.65 18.1-24.89 33.2-27.72 53.8 0.74 2.8 2.77 10.8 6.62 6.9 10.34-10 21.48-19.2 32-29.1 10.11-16.4 10.95-36.8 9.65-55.5-1.64-3.3-2.75-10.5-6.88-9.8m197.02 40.2c-24.88 7.1-51.32 15.3-65.14 39.3 0.01 14.3-11.26 24.1-12.01 38.1 10.09-2.8 20.15-6.9 29.07-12.4 10.59-13.4 20.77-27.2 32.67-39.5 4.67-3.4 6.64 6.5 2.31 8.3-5.63 10.9-26.9 21.8-15.32 34.9 2.62 11.2 2.06 22.9 2.8 34.4 6.36 0.7 6.11-7.8 9.03-11.7 16.23-24.1 26.47-53.3 22.87-82.6-1.1-2.9-0.8-11.3-6.28-8.8m-80.26 0.9c-24.09 6.3-46.96 19.7-62.61 39.4-3.26 11.6-7.79 22.7-11.35 34.1 9.23-2.6 18.24-6.2 27.34-9.2 6.96-14.5 17.63-27.1 29.52-37.6 3.39 1.5 3.82 8.3 1.45 11.1-9.32 5.7-13.17 16.3-17.55 25.7 8.11 10.6-0.89 26.7 4.5 36.1 12.41-9 15.6-25.4 23.46-37.9 11.47-16.6 6.81-37.5 8.71-56.3 1.82-4.6 0.02-6.2-3.47-5.4m168.99 2c-13.35 3.1-26.75 6.6-39.71 11-11.62 10.2-22.9 20.9-34.16 31.5-1.41 12.2-6.93 23.1-12.78 33.7-2.12 4 5.9 1 6.7 0.6 27.34-3.3 36.41-33.8 53.95-51 2.04-6.5 11.46 0.1 7.64 4.6-8.41 12.7-18.15 24.6-26.88 37 21.64-1.4 7.25 26.2 16.8 35.5 5.86-18.3 23.27-32.3 24.89-52.6 2.22-16.2 10.96-37.7 3.55-50.3m171.43 0.2c-11.58 3.6-22.73 8.8-34.21 12.8-24.51 11.7-38.42 34.7-44.42 60.2 8.9-1.8 17.99-3.6 26.36-7.1 10.38-11.8 20.48-23.9 31.18-35.4 3.32-3.1 12.56-0.5 8.22 4.6-11.67 15.2-29.99 27.9-24.74 50.2 9.84-3.4 18.26-11.1 27.41-16.4 13.69-20.3 17.02-45 14.75-69.1l-4.55 0.2m-80.34 1.7c-30.1 5.4-59.28 20.2-79.14 43.9-5.47 11.9-10.69 24.2-14.13 36.8 10.27-1.4 20.51-3.2 30.43-6.2 13.66-16.2 27.56-32.2 41.98-47.6 4.2-1 5.77 5.6 2.74 7.9-10.97 10.3-19.78 22.6-26.99 35.8 10.76 4.1 6.77 16.8 10.63 25.3 23.23-13.6 28.99-42.1 36.82-65.7-1.69-9.2 1.87-23.3-2.34-30.2m119.21 4.3c-7.61 3.9-15.15 8.1-22.1 13.1-0.81 15.5-9.27 30.4-9.42 45.5 16.9-10.2 18.84-32.6 28.88-48.3 0.78-2.6 5.67-10.6 2.64-10.3m-460.04 9.1c-13.18 7-29.46 8.2-39.57 20.3-9.59 10-25.22 16.8-27.64 31.8 5.42 9.9 10.33 22.8 17.46 30 10.24-12 12.84-31.1 27.59-39.8 4.17-0.8 4 5.6 3.2 8-9.96 12.7-15.47 28.1-23.77 41.8-3.31 3.4-0.42 7.7 3.03 9.3 8.37-13.2 20.21-23.3 31.69-33.6 13.75-20.1 7.67-45.7 10.35-68.3-0.59 0.1-1.75 0.4-2.34 0.5m36.53 56c-12.79 2-23.53 8.9-33.21 17.1-13.36 11.4-34.32 19.7-35.21 39.9-1.37 10.6 8.38 18.7 11.55 28.4 13.11-12.4 20.21-31.8 35.16-42.8 6.55 0.2 1.93 8.6-0.61 11.3-12.3 13.6-21.42 29.6-28.42 46.4 2.64 6.8 7.35 13.8 11.66 18.8 16.24-26.7 43.56-52.7 39.77-87-1.23-9.4 4.02-25.9-0.69-32.1m77.75 3.8c-34.64 7.5-69.14 33.2-73.87 70.3 17.27-8.8 38.14-14.8 47.62-33.3 3-4.7 10.32-15.4 14.37-6.3-3.63 13.7-16.81 22.6-22.69 35.1 3.53 12.6-0.64 28.5 3.37 38.7 12.65-12.5 31.95-20.9 33.44-40.9 10.1-20 8.52-42.2 5.47-63.8-2.51-0.5-5.25-0.4-7.71 0.2m309.99 2.1c-15.82 3.6-27.64 15.7-39.75 25.5-2.59 11.8-10.27 21.6-13.62 33 16.98 2.6 19.88-20.5 32.63-26.1 3.03 0.1 6.1 4.1 3.56 6.7-6.65 10.2-17.61 22-10.03 34.4 8.88-22.4 17.08-45.3 29.46-66.1 1.85-2.8 5.76-11.4-2.25-7.4m-65.98 1.9c-31.07 8.9-61.2 33-63.37 67.1 4.04-0.1 8.35-0.2 12.03-2.1 5.31-15.6 18.56-26.8 29.27-38.8 2.67-4.2 9.55 1.8 6.45 5.3-7 9.7-19.19 16.6-19.93 29.8 3.23 5.1 3.56 11.4 4.89 16.7 33.47-7.6 48.15-46.4 42.42-78.1-3.84-0.9-7.92-0.4-11.76 0.1m-169.92 2.1c-32.93 9.4-59.25 38-63.92 72.2 8.91-2.1 17.8-4.5 26.57-7.1 7.32-14.6 22.15-23.5 32.33-36 2.68-4.7 5.71 1.9 3.75 4.4-5.87 10.1-14.76 18.3-20.12 28.7 0.54 11.1 1.21 23.7 3.41 34 31.52-19.2 40.06-61.4 35.71-96.4-5.83-1.1-11.9-0.6-17.73 0.2m91.49 5.1c-18.14 2.5-37.1 7.6-48.62 23-16.51 9.1-18.94 28.1-24.42 44.3 28.11 0.9 38.18-30.3 56.72-44.8 2.58 0.4 5.49 2.8 3.47 6-6.69 11-14.36 21.3-22.33 31.4 0.36 9.1 1.51 18.5 3.79 27.4 5.58-1.9 8.88-8.2 14.49-10.6 25.66-14.5 30.14-48 27.26-74.6-2.95-2.1-6.8-2.8-10.36-2.1m-211.84 57.6c-21.19 7.1-37.92 22.6-55.26 36.1-3.3 8.2-4.89 17.1-7.91 25.4 3.36 5.9 6.23 14.8 14.25 14.9 10.62-13.1 21.01-26.5 32.3-39 1.91-3.6 5.78-0.7 5.98 2.2-8.54 15.7-24.88 28-26.75 46.6 6.09 3.1 13.03 4.9 19.87 4.4 23.97-23.1 23.3-62 17.52-90.6m310 2.3c-21.3 4.4-42.15 15.9-53.33 34.7-4.15 20.1-14.56 37.7-21.89 56.5 4.33-0.6 9.05-0.3 13.06-2.2 13.44-18 26.63-36.2 41.07-53.4 2.79-3.2 8.53 0.5 7.46 4.5-8.48 15.9-23.33 29.1-30.49 45.2 34.23 1.9 46.62-38 48.04-65.5-0.3-4.8 5.25-21.4-3.92-19.8m-70.93 8c-18.51 5-37.45 12.8-50.5 27.4-15.26 9.5-10.79 30-19.47 43.6-2.59 6.9-10.34 12.6-10.12 20.3 5.58 0 13.3 2.3 16.43-3.8 14.41-18.3 27.24-38 43.14-55 1.8 1 4.89 2.7 2.94 5-10.6 17.4-22.69 34-33.16 51.5 9.72 0 21.22 0.8 29.77-3.7 16.39-25.3 28-55.1 26.98-85.7-1.5 0.1-4.51 0.3-6.01 0.4m-158.81 3c-12.65 4.6-24.89 10.5-37.88 14.2-24.44 14.1-37.09 40-44.8 65.9 7.64 2.8 15.92 3.8 24.02 4.3 10.41-12.7 20.42-25.7 30.41-38.7 2.73-3.2 11.39 0.3 7.21 4.3-10.98 9.3-14.91 23.4-21.65 35.5 5.52 5 17.76 1.9 25.89 2.6 27.78-18 21.8-54.6 23.78-82.8 2.89-6.4-3.17-6.6-6.98-5.3m74.06 3.9c-22.47 4.1-41.42 17.6-55.16 35.5-1.61 16.1-6.33 31.5-16.06 44.6-4.13 5 4.22 6.6 7.63 5.8 14.62-14.9 27.33-31.6 41.63-46.7 3.05-5.1 8.02 3.3 4.75 5.9-12.02 11.6-23.66 25.1-28.39 41.4 10.71-0.5 22.51 2.1 32.64-2.1 22.44-21.5 31.25-54.1 25.69-84.5-4.19-0.9-8.55-0.4-12.73 0.1m151.72 71.2c-29.08 13.9-61.95 13.8-92.95 20.9-86.16 6.1-174.24 7.6-258.61-13.4-9.43 1-13.55 13.5-16.77 21.9-9.66 11.8-23.1 19.8-34.04 30.3-1.27 3.5 3.5 3.8 5.78 4.7 31.03 6.9 61.66 15.7 93.02 20.9 72.4 11 146.34 7.8 218.51-3.5 38.16-3 73.99-17.4 111.05-25.8 6.91-3.7 13.32-8.4 20.58-11.5-10.41-10-23.54-17.4-31.57-29.7-5.29-4.1-7.04-16.5-15-14.8m50.02 56.9c-48.6 20.9-101.15 31.3-153.03 41-28.54 1.7-57.13 2.6-85.64 5.2-38.98-2.9-78.03-4.7-116.98-7.6-33.74-6.6-66.93-16-100.78-22-0.94 3.2 1.68 5.2 4.05 6.7 59.27 25.4 124.62 38 189.02 32.3 37.93-0.7 76.41 0.5 113.58-8.4 50.66-11.4 106.52-10.3 150.41-41 0.42-1.9 2.93-7.4-0.63-6.2z"/>
</svg>
