<svg width="689" height="208" viewBox="0 0 689 208" fill="none" xmlns="http://www.w3.org/2000/svg">
<path d="M2 10.2V12.2H4H14.88V198.6H4H2V200.6V203.4V205.4H4H53.84H55.84V203.4V200.6V198.6H53.84H42.12V12.2H53.84H55.84V10.2V7.4V5.4H53.84H4H2V7.4V10.2ZM235.381 205.4H237.381V203.4V47.7467L339.264 204.49L339.855 205.4H340.941H361.381H363.381V203.4V7.4V5.4H361.381H357.741H355.741V7.4V181.751L242.943 6.31835L242.352 5.4H241.261H231.741H229.741V7.4V203.4V205.4H231.741H235.381ZM528.543 205.4H529.858L530.379 204.193L556.458 143.8H635.49L656.858 204.068L657.33 205.4H658.743H682.543H685.382L684.426 202.727L613.866 5.32682L613.134 3.27966L611.155 4.17926L608.075 5.57926L607.369 5.90049L607.064 6.61438L523.344 202.614L522.154 205.4H525.183H528.543ZM633.234 137H559.31L600.033 43.1035L633.234 137Z" stroke="#B82C23" stroke-width="4"/>
</svg>
